<?xml version="1.0" encoding="UTF-8" standalone="no"?>
<!-- Created with Inkscape (http://www.inkscape.org/) -->

<svg
   xmlns:dc="http://purl.org/dc/elements/1.1/"
   xmlns:cc="http://creativecommons.org/ns#"
   xmlns:rdf="http://www.w3.org/1999/02/22-rdf-syntax-ns#"
   xmlns:svg="http://www.w3.org/2000/svg"
   xmlns="http://www.w3.org/2000/svg"
   xmlns:sodipodi="http://sodipodi.sourceforge.net/DTD/sodipodi-0.dtd"
   xmlns:inkscape="http://www.inkscape.org/namespaces/inkscape"
   width="164.55339mm"
   height="49.096043mm"
   viewBox="0 0 164.55339 49.096043"
   version="1.1"
   id="svg4082"
   inkscape:version="0.92.5 (2060ec1f9f, 2020-04-08)"
   sodipodi:docname="ogarantia_logoBlue_nameBlack.svg"
   inkscape:export-filename="/home/wilder/Documents/Ogarantia/ogarantia_logo_blue.png"
   inkscape:export-xdpi="600.12982"
   inkscape:export-ydpi="600.12982">
  <defs
     id="defs4076" />
  <sodipodi:namedview
     id="base"
     pagecolor="#ffffff"
     bordercolor="#666666"
     borderopacity="1.0"
     inkscape:pageopacity="0.0"
     inkscape:pageshadow="2"
     inkscape:zoom="0.49497475"
     inkscape:cx="288.21336"
     inkscape:cy="-68.684532"
     inkscape:document-units="mm"
     inkscape:current-layer="layer1"
     showgrid="false"
     fit-margin-top="0"
     fit-margin-left="0"
     fit-margin-right="0"
     fit-margin-bottom="0"
     inkscape:window-width="1920"
     inkscape:window-height="1028"
     inkscape:window-x="0"
     inkscape:window-y="0"
     inkscape:window-maximized="1" />
  <metadata
     id="metadata4079">
    <rdf:RDF>
      <cc:Work
         rdf:about="">
        <dc:format>image/svg+xml</dc:format>
        <dc:type
           rdf:resource="http://purl.org/dc/dcmitype/StillImage" />
        <dc:title />
      </cc:Work>
    </rdf:RDF>
  </metadata>
  <g
     inkscape:label="Layer 1"
     inkscape:groupmode="layer"
     id="layer1"
     transform="translate(-19.490482,-22.636583)">
    <g
       id="g1708"
       inkscape:export-xdpi="600"
       inkscape:export-ydpi="600"
       transform="translate(4.2763124,-74.300929)">
      <g
         id="g1610"
         transform="translate(481.12963,130.2296)"
         style="fill:#009cff;fill-opacity:1">
        <path
           style="fill:#009cff;fill-opacity:1;stroke-width:0.26458335"
           d="m -430.65866,15.453583 c -0.52605,-0.195686 -1.33162,-0.622937 -1.79017,-0.949449 l -0.83371,-0.593654 -1.78171,0.481156 c -1.37032,0.370059 -2.75917,0.481822 -6.01505,0.484044 -3.70582,0.0026 -4.4806,-0.07444 -6.21771,-0.617685 -2.82142,-0.882349 -5.50431,-2.171655 -7.75138,-3.725051 -1.06843,-0.7386051 -2.1267,-1.3429161 -2.35172,-1.3429161 -0.22502,0 -1.25042,-0.4208807 -2.27867,-0.9352915 -3.33852,-1.6701903 -5.60461,-4.8213593 -6.12971,-8.52380622 -0.2573,-1.81419238 -0.0363,-4.29166078 0.51123,-5.73186458 0.13507,-0.3552534 0.18363,-1.4581638 0.10791,-2.4509149 -0.0757,-0.9927484 -0.0299,-2.5474727 0.10179,-3.4549427 0.17548,-1.209121 0.13871,-2.128092 -0.13765,-3.439584 -1.23984,-5.883954 1.20622,-10.417776 5.86317,-10.86751 1.10307,-0.106526 1.59635,-0.366608 3.3073,-1.743766 4.46039,-3.590222 9.25431,-5.269403 15.10773,-5.29183 3.23731,-0.0124 6.22744,0.508598 8.52421,1.48526 1.03407,0.43972 1.39258,0.480424 2.09001,0.237297 2.47406,-0.862464 4.73162,0.481343 4.73162,2.816494 0,0.524043 0.29369,1.033898 0.96011,1.666785 2.85831,2.714482 5.46425,6.848113 6.663,10.56909 2.69026,8.3506816 0.70293,17.38952836 -5.1889,23.6002941 l -1.43016,1.5075853 0.45914,1.2022455 c 0.78905,2.0661021 0.23784,3.9451541 -1.54854,5.2788771 -0.89434,0.667726 -3.59386,0.851852 -4.97214,0.339137 z m 4.24493,-0.641569 c 1.79498,-0.915284 2.52994,-2.842797 1.77391,-4.652249 l -0.41342,-0.9894592 -1.66303,1.2200652 c -0.91467,0.671034 -2.58541,1.657736 -3.71277,2.192671 -1.12735,0.534937 -2.05009,1.067385 -2.05052,1.183219 -5.3e-4,0.115837 0.6243,0.501626 1.38828,0.857314 1.65257,0.769379 3.40018,0.839782 4.67755,0.188439 z m -9.77677,-1.537624 1.81825,-0.413551 -1.00433,-1.433735 c -0.55239,-0.788554 -1.14975,-1.7848027 -1.32749,-2.213888 -0.26275,-0.6343439 -0.47516,-0.7758325 -1.13651,-0.7570285 -0.5594,0.015901 -0.99179,-0.1843088 -1.38481,-0.6412283 -0.42586,-0.4950884 -1.03818,-0.7511759 -2.40331,-1.005123 -2.67432,-0.4974908 -5.45455,-1.4732821 -8.38029,-2.9412751 -1.41882,-0.7118958 -2.57968,-1.2315746 -2.57968,-1.1548401 0,0.076735 0.40822,0.9501373 0.90716,1.9408987 0.83769,1.6634381 0.97225,1.8013812 1.75724,1.8013812 1.63185,0 2.16531,2.178185 0.72984,2.9800524 -0.60976,0.340614 -0.80146,0.3441674 -1.3962,0.025876 -0.79154,-0.4236165 -1.14885,-1.4637518 -0.73208,-2.1310997 0.21529,-0.3447336 0.18061,-0.6055096 -0.14173,-1.06571 -0.23472,-0.3351106 -0.80006,-1.4680088 -1.25632,-2.5175527 -0.67423,-1.550977 -1.12345,-2.1543699 -2.39925,-3.22273884 -2.93979,-2.46179446 -6.06352,-6.17290126 -7.38778,-8.77693576 l -0.46058,-0.9056819 -0.49295,0.6410986 c -0.58144,0.7561818 -0.49654,2.1385372 0.32207,5.2435337 2.17587,8.2531137 8.90612,14.7243413 17.20165,16.5396233 2.35491,0.515316 7.49789,0.519501 9.7471,0.0079 z m 5.42995,-1.901076 c 8.4477,-4.2069306 13.53134,-13.2894839 12.58731,-22.4888 -0.60619,-5.907187 -3.0557,-10.882485 -7.30193,-14.831258 -2.07066,-1.925611 -5.52425,-4.138808 -6.10854,-3.914595 -0.20044,0.07692 -0.59454,0.518233 -0.87579,0.980705 -0.44291,0.728301 -0.46082,0.891397 -0.13381,1.218409 0.85409,0.85409 0.0239,2.721002 -1.20995,2.721002 -0.29104,0 -0.76729,-0.238125 -1.05833,-0.529166 -0.97129,-0.971289 -0.50863,-2.440977 0.8784,-2.790316 0.51548,-0.129831 1.94097,-1.886842 1.71453,-2.113282 -0.0499,-0.04992 -1.15977,-0.400744 -2.46632,-0.77961 -10.62677,-3.081471 -22.15301,2.108278 -26.98238,12.14895 -1.15274,2.396648 -2.09341,5.972485 -1.87255,7.11825 0.32278,1.674505 0.51967,1.699162 2.09216,0.261995 0.79931,-0.730521 2.2081,-1.719825 3.13066,-2.198453 1.16193,-0.602817 1.79933,-1.123622 2.07425,-1.694821 0.62369,-1.295831 2.28867,-1.28976 2.88111,0.01051 0.27943,0.613279 0.25377,0.81262 -0.17962,1.395406 -0.62184,0.836198 -1.46452,0.990113 -2.32697,0.425019 -0.62431,-0.409069 -0.73264,-0.386266 -2.44866,0.515479 -0.98749,0.518915 -2.36852,1.525302 -3.06894,2.236417 l -1.2735,1.2929352 1.00201,1.676908 c 1.67757,2.8075123 4.64737,6.2592189 7.03143,8.17243158 l 0.95539,0.76670959 -0.21627,-1.1175762 c -0.11895,-0.61466466 -0.22145,-1.83307357 -0.22779,-2.70757437 -0.009,-1.2958869 -0.10941,-1.6511324 -0.54069,-1.9204729 -0.64913,-0.4053867 -0.69632,-1.5548266 -0.0913,-2.2233811 0.89143,-0.9850199 2.73711,-0.3023658 2.73711,1.012362 0,0.6244167 -0.83086,1.6787839 -1.32291,1.6787839 -0.35022,0 -0.33634,2.058162 0.028,4.15033361 l 0.29258,1.68013859 1.75794,1.0426938 c 2.98013,1.7676231 6.3262,2.995938 10.12248,3.7158878 1.27942,0.2426388 1.40265,0.2175457 1.97742,-0.4026456 0.71172,-0.7679531 1.33289,-0.8336756 2.19201,-0.2319205 0.4991,0.3495807 0.59102,0.6080125 0.49408,1.3890625 -0.13312,1.0725679 0.83172,3.2961371 2.0675,4.7647861 0.81618,0.969965 0.89443,0.960818 3.68986,-0.4313 z m 4.36563,-14.8832863 c -0.71227,-0.7122663 -0.6663,-1.4856804 0.13229,-2.2257861 0.3638,-0.3371612 0.66146,-0.9077431 0.66146,-1.2679601 0,-2.0872953 -2.04218,-7.4638825 -3.51591,-9.2565735 l -0.58513,-0.711779 -1.5875,1.078143 c -2.2465,1.525694 -5.9706,3.265738 -8.57214,4.005229 -1.79619,0.510569 -2.29195,0.764899 -2.58638,1.326824 -0.74767,1.4269774 -3.00143,1.0045119 -2.99264,-0.560968 0.005,-0.881564 0.20744,-1.206041 1.01987,-1.634231 0.53882,-0.283985 0.73276,-0.25233 1.37835,0.224975 0.93658,0.692442 1.32971,0.692282 3.58913,-0.0015 2.34978,-0.721487 5.61738,-2.287146 7.69369,-3.686407 2.00927,-1.354076 1.99032,-1.422508 -1.06677,-3.852935 -2.54676,-2.024711 -5.13752,-3.345513 -7.99653,-4.076724 -2.58128,-0.660179 -3.4913,-0.664861 -4.05022,-0.02084 -0.7521,0.866628 -1.54071,0.929987 -2.28696,0.183741 -0.83543,-0.835431 -0.83923,-1.334352 -0.0164,-2.157152 0.85176,-0.851765 1.36086,-0.81927 2.26098,0.144314 0.48496,0.519147 1.00224,0.795103 1.49522,0.797661 3.4182,0.01774 9.14835,2.805186 12.42645,6.044889 l 1.35396,1.338099 1.07589,-0.920925 c 0.97097,-0.831108 1.06123,-1.011279 0.92556,-1.847352 -0.26901,-1.657727 1.57193,-2.688984 2.65796,-1.488934 0.98419,1.087518 0.21639,2.680254 -1.30274,2.702427 -0.50411,0.0074 -1.16035,0.35243 -1.88691,0.992187 l -1.11398,0.980907 0.80732,1.190625 c 1.88452,2.779262 3.40502,6.8155287 3.40502,9.0388305 0,0.7204895 0.12938,1.0207387 0.48902,1.1348825 0.26896,0.085365 0.62669,0.45738 0.79496,0.8267013 0.74538,1.6359161 -1.32244,2.9840423 -2.60689,1.6995854 z m -32.89872,10.1464191 c -0.93688,-1.1134276 -2.19847,-2.9095621 -2.80353,-3.991409 -1.12569,-2.01273569 -2.64904,-6.1364654 -2.67911,-7.2523695 l -0.0168,-0.6224323 -0.27023,0.6614584 c -0.14862,0.3638021 -0.22663,1.7925521 -0.17336,3.175 0.0827,2.14624977 0.21838,2.7726058 0.92845,4.2864379 1.02976,2.1953776 2.62899,3.8271795 4.82742,4.925748 0.92672,0.4630896 1.73121,0.8419809 1.78775,0.8419809 0.0566,0 -0.66373,-0.9109869 -1.60062,-2.0244144 z m -4.147,-16.445889 c -0.002,-0.2460728 -0.11947,-0.6259988 -0.26053,-0.8442798 -0.19039,-0.294609 -0.25753,-0.137187 -0.26054,0.610927 -0.002,0.6053596 0.10161,0.9425049 0.26054,0.844281 0.14552,-0.089937 0.26276,-0.3648551 0.26053,-0.6109282 z m -0.39057,-7.3061308 c 0.79817,-2.284225 2.26696,-4.924837 3.88935,-6.992347 l 1.31849,-1.680239 -0.88525,0.177798 c -1.82992,0.367523 -2.53251,0.704882 -3.46851,1.665454 -1.10399,1.132968 -1.65186,2.302882 -1.91999,4.099953 -0.18893,1.266256 0.0635,4.855606 0.32324,4.595884 0.0765,-0.07648 0.41068,-0.916404 0.74267,-1.866503 z m 37.24547,-12.925259 c -0.56205,-0.965905 -1.89649,-1.447938 -3.14259,-1.135187 l -0.76018,0.190793 1.45991,0.839189 c 0.80295,0.461554 1.75378,1.050803 2.11294,1.309443 0.57252,0.412277 0.66373,0.419645 0.7398,0.05977 0.0477,-0.225769 -0.13672,-0.79457 -0.40988,-1.264004 z"
           id="path1588"
           inkscape:connector-curvature="0" />
        <path
           style="fill:#009cff;fill-opacity:1;stroke-width:0.26458335"
           d="m -430.65866,15.439587 c -0.52605,-0.187989 -1.33465,-0.611098 -1.7969,-0.940245 l -0.84044,-0.598448 -1.90727,0.488839 c -2.63133,0.674413 -9.11703,0.690073 -11.51206,0.0278 -2.70024,-0.746676 -5.40284,-1.979153 -7.76413,-3.540708 -1.21564,-0.803923 -2.74604,-1.642271 -3.40088,-1.8630023 -3.61927,-1.2199541 -6.2574,-3.764124 -7.43527,-7.1704572 -0.59906,-1.7324599 -0.71996,-5.4226804 -0.2274,-6.9408358 0.16525,-0.5093229 0.3553,-2.4738542 0.42234,-4.365625 0.067,-1.8917707 0.13406,-3.6777087 0.14895,-3.9687497 0.0149,-0.291042 -0.12368,-1.422136 -0.30793,-2.513542 -0.64108,-3.797453 0.15522,-6.840938 2.279,-8.710361 1.12967,-0.994372 2.73423,-1.608389 4.20309,-1.608389 0.44821,0 1.20643,-0.432204 2.10511,-1.199971 6.60949,-5.646664 16.43371,-7.406408 24.13954,-4.323947 1.14685,0.458758 1.52583,0.503162 2.22229,0.260373 2.50152,-0.872031 4.72945,0.48337 4.72945,2.877239 0,0.595481 0.24214,1.027577 0.89907,1.604372 1.5064,1.322636 3.75484,4.243129 4.89618,6.359626 2.06083,3.821596 2.936,7.326603 2.936,11.7584933 0,6.2715379 -2.19814,11.7434361 -6.54525,16.2933064 l -1.16376,1.2180332 0.44816,1.3701633 c 0.77236,2.3613638 0.15227,4.0823388 -1.89215,5.2513968 -1.18642,0.678426 -3.12003,0.776298 -4.63574,0.234641 z m 4.25846,-0.627573 c 1.10082,-0.553069 2.12194,-1.98509 2.12194,-2.975798 0,-0.620297 -0.44969,-2.3229043 -0.69034,-2.6137449 -0.0454,-0.054917 -0.82304,0.4503684 -1.728,1.1228569 -0.90497,0.672489 -2.5754,1.669921 -3.71208,2.216516 -1.13668,0.546594 -2.06781,1.088583 -2.06918,1.204417 -10e-4,0.115837 0.6226,0.501626 1.38658,0.857314 1.65277,0.769472 3.39529,0.839467 4.69108,0.188439 z m -9.73807,-1.560592 1.76602,-0.390583 -1.00433,-1.433735 c -0.55239,-0.788554 -1.15318,-1.7930815 -1.33511,-2.2322792 -0.27363,-0.660617 -0.48186,-0.7985469 -1.2055,-0.7985469 -0.61083,0 -1.02709,-0.1936777 -1.37969,-0.6419427 -0.37291,-0.4740725 -0.94875,-0.7222358 -2.20202,-0.9489837 -2.61521,-0.4731597 -6.22872,-1.7339152 -8.69538,-3.0338263 -1.22971,-0.648044 -2.27914,-1.1349408 -2.33209,-1.081995 -0.053,0.052946 0.32959,0.941906 0.85008,1.9754665 0.84766,1.6832209 1.02681,1.8791978 1.71788,1.8791978 1.66498,0 2.20859,2.0848611 0.7553,2.8967298 -0.66,0.3687075 -0.77283,0.3570314 -1.45521,-0.1505823 -0.77892,-0.5794349 -1.0986,-1.5670662 -0.65184,-2.0138311 0.17693,-0.1769216 -0.026,-0.8042566 -0.61063,-1.8877121 -0.48159,-0.8925005 -1.01348,-2.0594612 -1.18199,-2.5932448 -0.16851,-0.5337837 -0.60618,-1.1669528 -0.9726,-1.407041 -2.28497,-1.49717388 -7.01255,-6.8671546 -8.34499,-9.4789414 l -0.55313,-1.0842281 -0.50945,0.6291474 c -0.62298,0.7693554 -0.48665,2.4129048 0.47908,5.7754679 3.33571,11.6145762 15.09183,18.6254152 26.8656,16.0214632 z m 5.37772,-1.878018 c 3.84559,-1.9149061 6.71716,-4.4683602 9.02369,-8.0240215 2.52069,-3.88581907 3.63161,-7.5988599 3.6355,-12.1510215 0.006,-6.613437 -2.14254,-11.892552 -6.68267,-16.422432 -2.36404,-2.358708 -6.08276,-4.912377 -6.76967,-4.648784 -0.21695,0.08325 -0.62921,0.537404 -0.91615,1.009232 -0.46069,0.757545 -0.47633,0.907995 -0.1338,1.286489 0.41585,0.459518 0.50163,1.262817 0.18541,1.736406 -0.69453,1.040139 -2.49237,0.937154 -2.84148,-0.162767 -0.36837,-1.160637 0.30592,-2.15117 1.5194,-2.232013 0.18829,-0.01254 1.52456,-1.844303 1.52456,-2.089865 0,-0.06631 -0.80367,-0.364623 -1.78593,-0.662924 -7.33465,-2.227434 -15.04083,-0.860358 -21.10052,3.743231 -2.33876,1.776765 -5.1604,5.250983 -6.49115,7.992385 -1.29492,2.667598 -2.23862,6.107141 -2.00651,7.313218 0.33361,1.733473 0.51138,1.754239 2.18965,0.255789 0.85003,-0.758951 2.28965,-1.747004 3.19915,-2.195675 0.90951,-0.448671 1.65365,-0.978015 1.65365,-1.17632 0,-0.581117 1.00427,-1.418887 1.70089,-1.418887 0.83744,0 1.47411,0.656242 1.47411,1.51942 0,1.420776 -1.56626,2.168193 -2.52806,1.206389 -0.42254,-0.422533 -0.56129,-0.391486 -2.33801,0.523131 -1.03884,0.534777 -2.46908,1.561454 -3.17831,2.281505 l -1.28949,1.3091827 0.73606,1.2765405 c 1.36969,2.3754212 3.27592,4.743839 5.69511,7.0759426 1.32518,1.27748247 2.4543,2.2778165 2.50915,2.22296837 0.0548,-0.0548508 -0.01,-0.57263507 -0.14393,-1.15063059 -0.13401,-0.57799818 -0.24649,-1.73551588 -0.24996,-2.57226068 -0.005,-1.1628808 -0.131,-1.6460417 -0.53548,-2.0505209 -0.64341,-0.6434137 -0.68006,-1.5113873 -0.0913,-2.1619792 0.89143,-0.9850199 2.73711,-0.3023658 2.73711,1.012362 0,0.6244167 -0.83086,1.6787839 -1.32291,1.6787839 -0.35648,0 -0.33522,2.4704331 0.0372,4.32495067 0.29007,1.44438953 0.3614,1.53899133 1.83544,2.43442603 3.01843,1.8335995 6.55854,3.1622339 10.13741,3.8046528 1.49396,0.2681711 1.58454,0.2523305 2.17018,-0.3795898 1.23669,-1.3344075 2.7789,-0.4573561 2.69235,1.5311385 -0.0385,0.8842084 0.14914,1.4699086 0.8281,2.5851723 1.80149,2.9591448 1.76377,2.9485988 4.92117,1.3763758 z m 4.73596,-14.5566979 c -0.16011,-0.1069128 -0.43219,-0.4622773 -0.60462,-0.7896992 -0.34116,-0.6478482 -0.0265,-1.5862935 0.66979,-1.9975222 1.17228,-0.6923564 -0.96961,-7.5208427 -3.27357,-10.4363577 l -0.46922,-0.593776 -1.5875,1.082647 c -2.98672,2.036886 -8.66782,4.47053 -10.43602,4.47053 -0.28906,0 -0.54964,0.250277 -0.64146,0.616098 -0.32989,1.3143943 -2.54324,1.4448762 -2.94669,0.173713 -0.5821,-1.834046 1.50937,-2.981535 2.73738,-1.50187 0.30103,0.362717 0.53719,0.350232 2.23977,-0.118402 2.65072,-0.729605 6.1488,-2.312756 8.36369,-3.78521 1.64475,-1.093426 1.83836,-1.306448 1.59712,-1.75721 -0.3684,-0.68836 -3.29194,-3.072115 -5.12016,-4.174804 -1.84398,-1.112197 -5.56968,-2.412775 -7.47511,-2.609431 -1.27031,-0.131108 -1.49177,-0.08077 -1.84155,0.418626 -0.44933,0.641502 -1.97619,0.791019 -2.41949,0.236927 -0.64538,-0.806684 -0.63283,-1.506516 0.0391,-2.178407 0.86835,-0.868353 1.37327,-0.839999 2.27741,0.127886 0.43184,0.462283 1.01094,0.79375 1.38675,0.79375 1.1116,0 4.75899,1.036767 6.4792,1.841708 2.19677,1.027939 3.8345,2.170882 5.80337,4.050077 l 1.63077,1.556499 1.06234,-0.959761 c 0.94883,-0.857212 1.04642,-1.057879 0.91333,-1.878044 -0.26776,-1.649977 1.57669,-2.677037 2.65928,-1.480791 0.98251,1.085663 0.11114,2.892687 -1.26778,2.629089 -0.51082,-0.09765 -0.94283,0.126984 -1.85523,0.964657 l -1.18935,1.091945 0.80213,1.18554 c 1.915,2.830347 3.41894,6.8542005 3.41894,9.1475322 0,0.6098196 0.14462,0.9117885 0.48902,1.0210958 0.73991,0.2348389 1.17187,1.3634006 0.79551,2.0783868 -0.38087,0.7235508 -0.73972,0.9689624 -1.41682,0.9689624 -0.29104,0 -0.66017,-0.087471 -0.82029,-0.1943841 z m -33.27806,9.8090304 c -2.6062,-3.0973052 -4.87355,-7.6973431 -5.34561,-10.8452763 -0.17148,-1.1435345 -0.21119,-1.1990335 -0.43318,-0.6054169 -0.34582,0.9247928 -0.30751,4.45792225 0.0633,5.8349171 0.82916,3.0792685 2.86485,5.5664392 5.62457,6.8720098 0.90505,0.428162 1.68106,0.7785682 1.72446,0.778682 0.0434,1.138e-4 -0.69168,-0.9155986 -1.63352,-2.0349157 z m -4.13799,-16.4351787 c -0.002,-0.2460728 -0.11947,-0.6259988 -0.26053,-0.8442798 -0.19039,-0.294609 -0.25753,-0.137187 -0.26054,0.610927 -0.002,0.6053596 0.10161,0.9425049 0.26054,0.844281 0.14552,-0.089937 0.26276,-0.3648551 0.26053,-0.6109282 z m -0.39057,-7.3061308 c 0.80337,-2.299122 2.27853,-4.942229 3.88767,-6.965754 1.41142,-1.774873 1.34772,-1.884085 -0.73766,-1.264793 -2.24732,0.667383 -3.79626,2.68852 -4.21592,5.501166 -0.18893,1.266256 0.0635,4.855606 0.32324,4.595884 0.0765,-0.07648 0.41068,-0.916404 0.74267,-1.866503 z m 37.59851,-12.107768 c -0.0927,-0.463393 -0.36203,-1.056377 -0.59856,-1.317742 -0.51509,-0.569167 -1.93478,-0.876455 -2.91391,-0.630709 -0.67475,0.169352 -0.62577,0.226854 1.04619,1.228174 0.96474,0.577778 1.82532,1.165774 1.91239,1.306658 0.36616,0.592451 0.71565,0.222449 0.55389,-0.586381 z"
           id="path1590"
           inkscape:connector-curvature="0" />
        <path
           style="fill:#009cff;fill-opacity:1;stroke-width:0.26458335"
           d="m -430.70579,15.399 c -0.55197,-0.202578 -1.36225,-0.623721 -1.80063,-0.935874 -0.78678,-0.560242 -0.81986,-0.561713 -2.5683,-0.114146 -0.99013,0.253452 -3.28809,0.512794 -5.21083,0.588081 -2.90406,0.11371 -3.80238,0.04777 -5.76976,-0.423545 -3.17161,-0.759801 -5.83348,-1.911342 -8.41977,-3.642445 -1.19356,-0.798893 -2.71591,-1.6338944 -3.383,-1.8555544 -3.64218,-1.2102306 -6.25364,-3.7400918 -7.41289,-7.1812706 -0.68517,-2.03390767 -0.74239,-5.5435977 -0.12024,-7.3760939 0.28104,-0.8277649 0.37717,-1.7113118 0.28168,-2.5889348 -0.0797,-0.7327741 -0.0464,-2.2848143 0.0742,-3.4489813 0.16295,-1.573955 0.11818,-2.591539 -0.1746,-3.96875 -1.20374,-5.66226 1.23656,-10.116667 5.82635,-10.635122 1.10429,-0.124739 1.6283,-0.371897 2.69389,-1.270617 6.54697,-5.521751 15.16951,-7.238961 23.18927,-4.618227 2.00635,0.655647 2.5827,0.749469 3.22612,0.525173 2.41584,-0.842166 4.84899,0.655227 4.64226,2.856907 -0.0525,0.558766 0.29772,1.074553 1.67497,2.467022 4.52081,4.570786 6.74251,9.72607 7.01552,16.2790393 0.12418,2.9806437 0.0623,3.845855 -0.42601,5.9531264 -1.0096,4.35716101 -2.89105,7.9630562 -5.78699,11.0910107 l -1.41109,1.5241481 0.44152,1.3498831 c 0.51795,1.5835364 0.38269,2.8532534 -0.42476,3.9872024 -1.19313,1.675611 -3.83084,2.291656 -6.15689,1.437968 z m 4.51172,-0.651293 c 1.02879,-0.627259 1.91345,-1.984875 1.91482,-2.93851 8e-4,-0.571495 -0.44485,-2.2804681 -0.66937,-2.5667446 -0.0344,-0.043929 -1.05524,0.5960163 -2.26842,1.4221006 -1.21318,0.826085 -2.89373,1.800323 -3.73454,2.164975 -0.84082,0.364651 -1.52876,0.77198 -1.52876,0.905174 0,0.133194 0.62508,0.533185 1.38906,0.888873 1.74958,0.814543 3.68441,0.863589 4.89721,0.124132 z M -438.38646,13.6723 c 1.13831,-0.154128 2.51033,-0.395274 3.04891,-0.535885 l 0.97926,-0.255651 -1.01132,-1.443699 c -0.55622,-0.794033 -1.16015,-1.8030425 -1.34208,-2.2422402 -0.27363,-0.660617 -0.48186,-0.7985469 -1.2055,-0.7985469 -0.61083,0 -1.02709,-0.1936777 -1.37969,-0.6419427 -0.37291,-0.4740725 -0.94875,-0.7222358 -2.20202,-0.9489837 -2.61521,-0.4731597 -6.22872,-1.7339152 -8.69538,-3.0338263 -1.22971,-0.648044 -2.28506,-1.1290274 -2.34523,-1.0688558 -0.0602,0.060172 0.29111,0.9177337 0.78061,1.9056932 0.82604,1.6671661 0.96332,1.8081413 1.90976,1.9611816 1.08398,0.1752786 1.48318,0.56261 1.48975,1.4454347 0.01,1.3426599 -1.39589,2.0037371 -2.46792,1.160481 -0.70766,-0.5566463 -0.94987,-1.6537305 -0.43531,-1.9717438 0.16114,-0.099592 -0.0904,-0.8167608 -0.63199,-1.8015532 -0.49484,-0.8998506 -1.0398,-2.0781407 -1.21103,-2.6184199 -0.2126,-0.6708458 -0.70434,-1.2711695 -1.55082,-1.89326047 -2.49528,-1.83382446 -5.87087,-5.73630433 -7.62969,-8.82061313 l -0.78548,-1.3774473 -0.46453,0.7863787 c -0.41215,0.6977195 -0.43047,1.0110206 -0.16248,2.7789505 1.17195,7.7314426 6.23489,14.3817713 13.39446,17.5940507 2.7209,1.220788 4.82068,1.681578 9.40417,2.063719 0.24414,0.02035 1.37523,-0.0891 2.51355,-0.243221 z m 7.12077,-1.999605 c 1.80754,-0.844306 4.30437,-2.4771479 5.68444,-3.7174326 3.06502,-2.7545586 5.7729,-7.2103695 6.89593,-11.3472252 0.79998,-2.9468737 0.80309,-7.7906072 0.007,-11.0456582 -1.53927,-6.294443 -5.47424,-11.500113 -11.22568,-14.850734 -1.44115,-0.839571 -1.8369,-0.774064 -2.56593,0.424732 -0.47255,0.777042 -0.48315,0.900467 -0.11254,1.309983 0.56054,0.619399 0.37041,1.532094 -0.44558,2.138908 -0.57883,0.430449 -0.78459,0.457928 -1.38398,0.184829 -1.35504,-0.617397 -1.28248,-2.521315 0.10667,-2.799146 0.5596,-0.111919 1.00915,-0.481917 1.46726,-1.207597 0.36325,-0.575431 0.60077,-1.10593 0.52781,-1.178886 -0.073,-0.07296 -1.12335,-0.424865 -2.3342,-0.782019 -7.67602,-2.264121 -16.49196,-0.05409 -22.31828,5.59487 -4.59886,4.458863 -7.87997,12.320109 -6.22958,14.9255 0.18684,0.294962 0.55145,0.09274 1.73541,-0.962508 0.82438,-0.734758 2.26652,-1.725562 3.20476,-2.201786 1.19121,-0.604626 1.75329,-1.054731 1.863,-1.491867 0.43107,-1.71752 3.00667,-1.393538 3.00667,0.378206 0,1.369618 -1.6006,2.199329 -2.39537,1.241696 -0.67564,-0.814092 -3.48993,0.563884 -5.65216,2.767489 l -1.30064,1.3255403 1.26187,2.0873774 c 1.4057,2.3252985 3.8865,5.2368477 6.14911,7.21680415 0.82141,0.71880148 1.52345,1.27652728 1.56008,1.23939566 0.0366,-0.0371316 -0.0369,-0.60329499 -0.1635,-1.25813875 -0.12655,-0.65484375 -0.23528,-1.81570316 -0.24162,-2.57968756 -0.009,-1.0255885 -0.14999,-1.5275295 -0.54069,-1.9182292 -0.64341,-0.6434137 -0.68006,-1.5113873 -0.0913,-2.1619792 0.89143,-0.9850199 2.73711,-0.3023658 2.73711,1.012362 0,0.6244167 -0.83086,1.6787839 -1.32291,1.6787839 -0.3427,0 -0.3401,2.4383313 0.005,4.26336625 0.30877,1.63504035 0.55427,1.87635885 3.43503,3.37647235 2.59492,1.3512641 5.25162,2.285963 7.95504,2.7987916 2.10679,0.3996505 2.20436,0.3961183 2.66323,-0.096427 0.64684,-0.6942931 1.4241,-0.9045734 2.06861,-0.5596387 0.5987,0.320413 0.9533,1.3604663 0.69412,2.0358814 -0.20982,0.5467668 0.86151,2.7799104 1.98228,4.1319874 0.92217,1.112498 0.98671,1.113004 3.31387,0.02598 z m 5.2411,-14.8559889 c -0.16011,-0.1069128 -0.43219,-0.4622773 -0.60462,-0.7896992 -0.34249,-0.6503617 -0.0439,-1.5170362 0.71547,-2.0770162 0.90668,-0.6685677 -0.39448,-5.6044537 -2.34121,-8.8812787 -0.58212,-0.979869 -1.16731,-1.848881 -1.3004,-1.931137 -0.1331,-0.08226 -0.99449,0.373829 -1.91422,1.013523 -0.91972,0.639694 -2.50567,1.579979 -3.52431,2.089522 -1.89885,0.949836 -5.86367,2.311908 -6.72968,2.311908 -0.26655,0 -0.54375,0.225999 -0.61598,0.50222 -0.0722,0.276221 -0.43532,0.701402 -0.80687,0.944846 -0.55795,0.3655835 -0.78224,0.3864062 -1.28858,0.1196289 -0.76665,-0.4039189 -1.00073,-0.7487179 -1.00588,-1.4816509 -0.009,-1.310949 1.70719,-1.873286 2.75702,-0.903268 0.53818,0.497261 0.57924,0.495087 2.78899,-0.147663 1.23353,-0.358796 3.22731,-1.113726 4.43064,-1.677623 2.10398,-0.985962 5.36513,-3.068756 5.36513,-3.426546 0,-0.226903 -1.67851,-1.803546 -3.175,-2.982312 -2.63845,-2.078272 -6.62598,-3.777329 -9.60497,-4.092601 -1.37101,-0.145097 -1.57774,-0.101699 -1.93323,0.405832 -0.47413,0.676922 -1.97943,0.780256 -2.48539,0.170613 -0.52354,-0.630824 -0.39423,-1.767326 0.26149,-2.298301 0.82403,-0.667255 1.26413,-0.60193 2.12043,0.314741 0.43184,0.462283 1.01094,0.79375 1.38675,0.79375 1.1116,0 4.75899,1.036767 6.4792,1.841708 2.19677,1.027939 3.8345,2.170882 5.80337,4.050077 l 1.63077,1.556499 1.08652,-0.981604 c 0.97997,-0.885348 1.06994,-1.069961 0.91749,-1.88264 -0.30466,-1.62394 1.54976,-2.64904 2.63094,-1.454352 0.95025,1.050019 0.0196,2.875195 -1.33406,2.616421 -0.50833,-0.09717 -0.93075,0.126918 -1.82147,0.966293 l -1.15967,1.092807 1.17921,1.818834 c 1.6406,2.530478 3.00888,6.3450035 3.03528,8.4618368 0.006,0.4832562 0.24788,0.943237 0.67088,1.2759744 0.79425,0.6247527 0.87958,1.7899882 0.17761,2.4252634 -0.50806,0.4597903 -1.2998,0.5638112 -1.79165,0.2353945 z M -458.47796,7.536382 c -2.75803,-2.9663655 -5.07436,-7.19628044 -5.99685,-10.9510196 -0.28103,-1.1438414 -0.52028,-2.0201784 -0.53166,-1.947418 -0.0114,0.07276 -0.13589,0.8358187 -0.27671,1.6956828 -0.51108,3.12092187 0.64092,7.0224281 2.76906,9.3780241 0.81529,0.9024329 4.21127,2.9492099 4.89327,2.9492099 0.10362,0 -0.28208,-0.5060156 -0.85711,-1.1244792 z m -5.01855,-17.789469 c -0.4384,-0.845455 -0.46925,-0.819187 -0.46925,0.3995864 0,1.0566294 0.0312,1.1103874 0.3728,0.6431703 0.27645,-0.3780684 0.30138,-0.6475598 0.0965,-1.0427567 z m -0.47294,-6.419906 c 0.75304,-2.353788 2.36102,-5.317088 4.00915,-7.388313 1.42749,-1.793956 1.36557,-1.905058 -0.71629,-1.285129 -3.17709,0.946065 -4.71924,4.124171 -4.22784,8.712846 0.10287,0.960593 0.22677,1.746533 0.27533,1.746533 0.0486,0 0.3454,-0.803672 0.65965,-1.785937 z m 37.83911,-12.389624 c 0,-1.02879 -1.33061,-2.228606 -2.47155,-2.228606 -1.87632,0 -1.88983,0.273948 -0.0674,1.365402 0.94841,0.567989 1.79561,1.147977 1.88268,1.288861 0.30007,0.485527 0.65625,0.254503 0.65625,-0.425657 z"
           id="path1592"
           inkscape:connector-curvature="0" />
        <path
           style="fill:#009cff;fill-opacity:1;stroke-width:0.26458335"
           d="m -431.65824,14.856665 -1.89484,-0.947949 -1.64644,0.432739 c -2.22131,0.583829 -7.3094,0.820333 -9.48768,0.441005 -3.54343,-0.617064 -7.09097,-2.071436 -10.13238,-4.153932 -0.97597,-0.6682663 -2.44125,-1.4444268 -3.25617,-1.7247978 -3.15455,-1.0853262 -5.3839,-3.071421 -6.76973,-6.0310581 -0.68303,-1.4586956 -0.8383,-2.1562563 -0.92635,-4.1616048 -0.0727,-1.6548154 0.0213,-2.8560766 0.30004,-3.8364584 0.35434,-1.2462484 0.43033,-2.4429879 0.52739,-8.3064559 0.007,-0.436563 -0.14009,-1.683441 -0.32737,-2.77084 -0.93984,-5.456977 1.35867,-9.379061 5.83169,-9.950968 1.14957,-0.14698 1.68498,-0.399942 2.75037,-1.299431 6.71737,-5.671396 16.02832,-7.328739 24.17637,-4.303379 1.23739,0.459444 1.55219,0.485166 2.42247,0.197948 2.12243,-0.700468 4.27387,0.581555 4.37201,2.605249 0.0421,0.867333 0.30336,1.274354 1.78061,2.773582 6.76499,6.865634 8.89685,16.9550788 5.4609,25.84471376 -0.93867,2.42858664 -2.97077,5.64245924 -4.77162,7.54659144 l -1.34529,1.4224556 0.44908,1.3520526 c 0.75932,2.2860956 -0.0579,4.3915096 -2.05677,5.2988896 -1.74538,0.792311 -3.2529,0.673963 -5.45629,-0.428352 z m 5.54844,-0.153721 c 1.10706,-0.622202 1.83154,-1.835001 1.83154,-3.066026 0,-0.792382 -0.47742,-2.4468901 -0.70607,-2.4468901 -0.0688,0 -0.8638,0.527095 -1.76661,1.1713241 -0.9028,0.644228 -2.62349,1.646221 -3.82375,2.226651 l -2.18228,1.05533 0.73363,0.513747 c 1.769,1.238803 4.26988,1.469652 5.91354,0.545864 z m -12.05908,-1.028202 c 1.01864,-0.147016 2.2967,-0.386869 2.84012,-0.533003 l 0.98803,-0.265703 -1.03087,-1.512276 c -0.56698,-0.83175 -1.17953,-1.8396957 -1.36123,-2.239878 -0.26237,-0.5778526 -0.50826,-0.7276041 -1.19473,-0.7276041 -0.60695,0 -1.01939,-0.1970696 -1.38488,-0.6617177 -0.41183,-0.5235522 -0.97711,-0.7483316 -2.70734,-1.0765525 -2.78959,-0.5291773 -5.80612,-1.631622 -8.60447,-3.1446629 l -2.20604,-1.1927867 0.53584,1.2500716 c 0.97611,2.2771735 1.52747,2.9735648 2.35429,2.9735648 1.90297,0 2.17544,2.4852445 0.33245,3.032424 -0.43099,0.1279631 -0.7711,-0.00476 -1.25677,-0.4904237 -0.71009,-0.7100941 -0.80618,-1.1166766 -0.41143,-1.7408763 0.17244,-0.2726823 0.0227,-0.7884848 -0.49938,-1.7197917 -0.41014,-0.7316603 -0.95462,-1.8930012 -1.20996,-2.5807618 -0.34284,-0.9234408 -0.82657,-1.5299928 -1.84963,-2.31928458 -2.54754,-1.96540702 -5.39494,-5.26567672 -7.35529,-8.52510792 l -0.90909,-1.5115302 -0.4736,0.8794168 c -0.45182,0.8389858 -0.45281,0.9936374 -0.0215,3.3636162 1.5733,8.6440355 8.24848,15.9326427 16.57719,18.1005717 3.19081,0.830557 6.08711,1.040797 8.84824,0.642295 z m 7.50006,-2.291525 c 6.34317,-3.1612837 10.77784,-9.0066201 12.26207,-16.162639 1.20402,-5.805023 -0.28788,-12.627065 -3.85021,-17.605999 -1.10989,-1.551249 -3.50006,-4.048663 -4.93694,-5.158451 -1.07013,-0.826526 -3.80268,-2.423012 -4.1485,-2.423754 -0.17449,-3.7e-4 -0.63708,0.41863 -1.02798,0.93112 -0.67579,0.886007 -0.68841,0.956452 -0.25678,1.43339 0.60531,0.668866 0.4358,1.566231 -0.41545,2.19932 -0.59291,0.440951 -0.78654,0.468083 -1.32292,0.185373 -0.34559,-0.182152 -0.71583,-0.462189 -0.82274,-0.622305 -0.54807,-0.82081 0.19202,-2.275495 1.15768,-2.275495 0.27356,0 0.79516,-0.469572 1.19831,-1.078774 0.85413,-1.290682 0.85322,-1.291585 -2.15733,-2.140642 -3.09687,-0.8734 -8.88791,-0.877262 -11.91052,-0.0079 -7.53186,2.166205 -13.24609,7.470578 -15.79281,14.660071 -0.92705,2.617072 -1.17633,4.456037 -0.74516,5.496988 0.18166,0.438561 0.38606,0.797384 0.45423,0.797384 0.0682,0 0.75965,-0.566605 1.53664,-1.259122 0.77699,-0.692518 2.19688,-1.661325 3.15531,-2.152904 1.22596,-0.628794 1.78965,-1.081216 1.90128,-1.525982 0.42507,-1.693628 3.00822,-1.3552 3.00822,0.394119 0,1.336345 -1.60622,2.170461 -2.38125,1.236597 -0.46344,-0.558402 -0.79938,-0.504826 -2.52439,0.402583 -1.56224,0.821785 -3.05731,2.002772 -3.9172,3.094286 -0.48386,0.6141848 -0.47807,0.6375369 0.61366,2.4751846 1.46183,2.4606277 3.85541,5.3203238 6.01659,7.18824774 0.96638,0.83524991 1.78519,1.49009367 1.81957,1.45520835 0.0344,-0.0348853 -0.041,-0.59920717 -0.16759,-1.25405093 -0.12655,-0.65484375 -0.23528,-1.81570316 -0.24162,-2.57968756 -0.009,-1.0255885 -0.14999,-1.5275295 -0.54069,-1.9182292 -0.64341,-0.6434137 -0.68006,-1.5113873 -0.0913,-2.1619792 0.89143,-0.9850199 2.73711,-0.3023658 2.73711,1.012362 0,0.6244167 -0.83086,1.6787839 -1.32291,1.6787839 -0.3427,0 -0.3401,2.4383313 0.005,4.26336625 0.30877,1.63504035 0.55427,1.87635885 3.43503,3.37647235 2.54219,1.323803 5.22317,2.2771179 7.96798,2.833288 1.90439,0.3858789 2.2128,0.3926813 2.46236,0.054303 1.23062,-1.6686134 3.44725,-0.7157112 2.9494,1.2679071 -0.17829,0.7103401 0.20232,1.5830339 1.64333,3.7679866 1.08901,1.651225 1.18045,1.653882 4.25095,0.123616 z m 4.2931,-15.0611627 c -0.6918,-0.8794803 -0.68768,-0.9487879 0.11309,-1.9004412 0.41968,-0.4987634 0.66146,-1.1125703 0.66146,-1.6792655 0,-2.1652944 -1.87821,-7.0019606 -3.50936,-9.0371616 l -0.59815,-0.7463 -1.84349,1.236195 c -3.08772,2.070545 -6.96609,3.777956 -9.56735,4.211927 -0.74296,0.123947 -1.13947,0.339732 -1.22495,0.666617 -0.0695,0.265838 -0.43039,0.682525 -0.80194,0.925969 -0.55795,0.3655835 -0.78224,0.3864062 -1.28858,0.1196289 -0.76107,-0.4009809 -1.00069,-0.7486619 -1.00588,-1.4595419 -0.009,-1.266412 1.86846,-1.901592 2.7481,-0.929605 0.28173,0.311313 0.67223,0.45198 1.03319,0.37218 1.63807,-0.362135 5.0266,-1.582719 6.6657,-2.401048 2.04714,-1.022046 4.89479,-2.877241 4.89479,-3.188867 0,-0.304702 -2.07233,-2.221962 -3.72057,-3.44217 -3.80975,-2.82038 -10.13703,-4.655034 -11.04423,-3.202374 -0.26236,0.420107 -0.56251,0.525844 -1.31433,0.463021 -1.60271,-0.133923 -2.05979,-1.874968 -0.72231,-2.751318 0.72786,-0.47691 1.96755,-0.09896 2.16612,0.660402 0.10301,0.393908 0.47567,0.534672 1.7874,0.675146 3.82677,0.409812 8.36268,2.621235 11.55671,5.63433 l 1.84293,1.738521 1.05466,-1.029844 c 0.8856,-0.864774 1.02848,-1.149 0.89138,-1.77323 -0.35738,-1.627111 1.53867,-2.756473 2.62061,-1.560943 0.98156,1.084618 0.0124,2.883859 -1.40114,2.601154 -0.59964,-0.119929 -0.91834,0.0513 -1.83632,0.986659 l -1.11075,1.131772 0.97444,1.433176 c 0.53595,0.788247 1.25562,2.039165 1.59927,2.779819 0.68633,1.479191 1.68321,5.1109184 1.68321,6.1320804 0,0.3752136 0.27799,0.8658622 0.66146,1.1675058 0.79425,0.6247527 0.87958,1.7899882 0.17761,2.4252634 -0.70281,0.6360266 -1.51594,0.5376439 -2.14278,-0.2592573 z m -32.03354,11.2184685 c -2.65865,-2.6586578 -4.93753,-6.75749815 -5.96611,-10.7307964 -0.62017,-2.3956354 -0.60893,-2.3978685 -1.05288,0.209468 -0.22824,1.3404109 0.32238,4.3578093 1.09212,5.9849068 0.92406,1.9533024 2.57791,3.6525306 4.60371,4.7300145 2.29075,1.2184089 2.67844,1.1616849 1.32316,-0.1935929 z m -5.08725,-17.7936098 c -0.4384,-0.845455 -0.46925,-0.819187 -0.46925,0.3995864 0,1.0566294 0.0312,1.1103874 0.3728,0.6431703 0.27645,-0.3780684 0.30138,-0.6475598 0.0965,-1.0427567 z m 0.0655,-7.731857 c 0.76662,-2.035113 2.46542,-4.872905 4.14463,-6.92346 l 0.73146,-0.893223 -1.18409,0.186562 c -3.76087,0.592553 -5.70707,4.009516 -5.15324,9.047622 0.22054,2.006254 0.14332,2.081162 1.46124,-1.417501 z m 37.30062,-11.077673 c 0,-1.02879 -1.33061,-2.228606 -2.47155,-2.228606 -1.87632,0 -1.88983,0.273948 -0.0674,1.365402 0.94841,0.567989 1.79561,1.147977 1.88268,1.288861 0.30007,0.485527 0.65625,0.254503 0.65625,-0.425657 z"
           id="path1594"
           inkscape:connector-curvature="0" />
        <path
           style="fill:#009cff;fill-opacity:1;stroke-width:0.26458335"
           d="m -430.44234,15.422997 c -0.55259,-0.197114 -1.44578,-0.650277 -1.98487,-1.007028 -0.91039,-0.602469 -1.05209,-0.623739 -1.9906,-0.298815 -1.73101,0.59929 -5.48341,0.968759 -8.24899,0.812213 -4.10654,-0.232452 -7.83485,-1.522727 -11.73761,-4.062084 -1.21694,-0.791808 -2.97434,-1.7263671 -3.90535,-2.0767945 -3.19668,-1.2032297 -5.23932,-3.0834066 -6.62844,-6.1012388 -0.91871,-1.99589234 -1.16417,-5.5993348 -0.53232,-7.8146408 0.52851,-1.8530174 0.64531,-8.4112469 0.19687,-11.0545239 -0.92806,-5.470327 1.3662,-9.394373 5.83357,-9.977583 1.20834,-0.157747 1.69143,-0.406595 3.14724,-1.621232 1.9696,-1.643301 6.72773,-4.074421 9.19162,-4.696359 4.9346,-1.2456 10.72577,-0.905334 14.92186,0.876748 1.03029,0.437565 1.23143,0.446843 2.12003,0.09779 2.04736,-0.804227 4.24097,0.495591 4.3417,2.57267 0.0437,0.901153 0.28799,1.281703 1.80846,2.81721 4.4092,4.452806 6.65538,9.656256 6.96086,16.1254417 0.11481,2.4311113 0.0439,3.706784 -0.30029,5.4056551 -0.87365,4.3116024 -2.99851,8.4959244 -5.94899,11.7148399 l -1.39059,1.517113 0.44604,1.3429006 c 1.28136,3.8578257 -2.22727,6.8805667 -6.3002,5.4277177 z m 4.28613,-0.663522 c 1.10807,-0.565295 1.87795,-1.845413 1.87795,-3.122557 0,-0.815609 -0.47993,-2.4468901 -0.71988,-2.4468901 -0.0764,0 -0.89069,0.5364215 -1.80946,1.1920461 -0.91878,0.655627 -2.63325,1.65762 -3.80994,2.226654 l -2.13943,1.034605 0.77203,0.549736 c 1.1563,0.823354 1.87394,1.047107 3.41775,1.065604 0.89409,0.01071 1.76489,-0.169585 2.41098,-0.499198 z m -12.01267,-1.084733 c 1.01864,-0.147016 2.29436,-0.386239 2.83492,-0.531606 l 0.98284,-0.264303 -1.19274,-1.778257 c -0.65601,-0.97804 -1.25457,-2.0244327 -1.33014,-2.3253116 -0.11131,-0.443193 -0.29411,-0.5240576 -0.96281,-0.425913 -0.65582,0.096253 -0.93864,-0.020849 -1.3765,-0.5699866 -0.43416,-0.5444887 -0.9762,-0.7724696 -2.55463,-1.074473 -2.93238,-0.5610569 -5.86564,-1.6079337 -8.63154,-3.0805781 l -2.44101,-1.2996678 0.66896,1.5144618 c 0.99557,2.2538928 1.35381,2.7050868 2.14781,2.7050868 1.76035,0 2.29353,2.0394877 0.74234,2.8395428 -1.14451,0.5903013 -2.63343,-0.8330195 -2.03708,-1.9473202 0.40736,-0.7611506 -1.98234,-5.478354 -3.30948,-6.53283505 -2.79843,-2.22350275 -5.29275,-5.06886375 -7.30595,-8.33417935 l -1.16261,-1.8856907 -0.4639,0.8614225 c -0.41021,0.7617143 -0.42873,1.0881783 -0.15996,2.8204081 1.56888,10.1116898 9.64866,18.0092084 19.73065,19.2855744 2.5822,0.326906 3.68837,0.331394 5.82083,0.02363 z m 7.28919,-2.16961 c 8.34548,-4.1921562 13.46822,-12.8833722 12.84842,-21.798555 -0.55188,-7.938159 -4.64634,-14.667014 -11.39909,-18.733305 -0.86,-0.517868 -1.74924,-0.940104 -1.97608,-0.938303 -0.22684,0.0018 -0.67789,0.413126 -1.00233,0.914054 -0.57074,0.881217 -0.57503,0.936767 -0.13229,1.711449 0.52222,0.913745 0.30241,1.520968 -0.74225,2.050452 -0.63923,0.323997 -1.48353,0.0795 -1.90496,-0.551652 -0.56703,-0.849216 0.19572,-2.268289 1.22758,-2.283858 0.36618,-0.0055 0.79147,-0.399442 1.25307,-1.160645 l 0.69876,-1.152283 -1.88939,-0.558335 c -3.19571,-0.944371 -4.90043,-1.156108 -8.10709,-1.006955 -3.68075,0.171205 -5.72461,0.674552 -8.86354,2.182842 -4.68876,2.252999 -8.31797,5.783052 -10.59211,10.302698 -1.27987,2.543632 -2.24018,5.528027 -2.24018,6.961865 0,0.730173 0.31038,1.696003 0.68517,2.132085 0.0464,0.05396 0.73618,-0.482875 1.5329,-1.192977 0.79671,-0.710101 2.22717,-1.690432 3.17878,-2.178514 0.95161,-0.488081 1.80129,-1.111396 1.88817,-1.385144 0.23469,-0.739438 0.88242,-1.294607 1.51044,-1.294607 1.40629,0 2.07203,1.96689 0.93525,2.763122 -0.75266,0.527183 -1.23462,0.520523 -1.83785,-0.02539 -0.44057,-0.398711 -0.57426,-0.401501 -1.51583,-0.03164 -1.53445,0.602746 -3.92956,2.269476 -4.68552,3.260597 l -0.6648,0.8715897 0.52167,1.0126319 c 1.43682,2.7890787 6.27489,8.43627404 8.03417,9.37780971 0.49791,0.26647509 0.53281,0.23560617 0.37476,-0.33150175 -0.0959,-0.34393717 -0.25145,-1.56719586 -0.34578,-2.71835306 -0.12394,-1.5124059 -0.30652,-2.2280192 -0.65819,-2.5796875 -0.99061,-0.9906063 -0.28704,-2.6033423 1.13573,-2.6033423 1.55088,0 2.0417,2.2174888 0.6329,2.8593838 -0.60551,0.2758864 -0.66781,0.4516835 -0.66781,1.8844208 0,0.8690822 0.12661,2.1704935 0.28135,2.89202284 0.23141,1.07901056 0.45828,1.42896696 1.27815,1.97152946 2.75587,1.8237439 7.04824,3.5048641 10.58764,4.1466797 1.52376,0.2763097 1.723,0.2581699 2.23727,-0.2037053 0.89467,-0.8035052 1.14315,-0.8767419 1.86256,-0.5489575 0.77663,0.3538564 1.06942,1.0426726 0.83694,1.968963 -0.25563,1.0184871 2.14632,5.1379965 2.99579,5.1379965 0.247,0 1.45642,-0.506015 2.68762,-1.124479 z m 4.65807,-14.9697917 c -0.63112,-0.6973809 -0.55057,-1.7876917 0.17235,-2.332998 0.55106,-0.4156578 0.59211,-0.5939658 0.42324,-1.8383224 -0.4011,-2.9557609 -1.90113,-6.6832499 -3.4845,-8.6588339 l -0.59815,-0.7463 -1.84885,1.249399 c -2.49989,1.689352 -5.61295,3.123002 -8.35744,3.848842 -1.67562,0.443152 -2.33806,0.743384 -2.51354,1.139186 -0.70315,1.5859298 -2.99984,1.1767888 -3.01236,-0.536632 -0.009,-1.266412 1.86846,-1.901592 2.7481,-0.929605 0.51069,0.564313 0.66212,0.546851 3.73014,-0.430155 3.27311,-1.042318 8.86354,-4.079949 8.86354,-4.81612 0,-0.312846 -2.70689,-2.761652 -4.15097,-3.755209 -2.44107,-1.679502 -6.57931,-3.24649 -9.08955,-3.441857 -0.68661,-0.05344 -1.0978,0.08745 -1.53696,0.526602 -1.21331,1.213315 -3.26554,0.158569 -2.70088,-1.388125 0.44649,-1.223006 2.2481,-1.385618 2.77003,-0.25002 0.18884,0.410881 0.68111,0.587757 2.28736,0.82187 4.04397,0.589415 8.26725,2.745067 11.42666,5.832417 l 1.51924,1.484581 1.06805,-1.042925 c 0.8983,-0.877163 1.0421,-1.161078 0.90478,-1.78631 -0.37191,-1.693308 1.68711,-2.826643 2.64661,-1.456759 0.56055,0.800294 0.51728,1.423227 -0.14485,2.085356 -0.39914,0.399138 -0.76211,0.515651 -1.28229,0.411614 -0.59929,-0.119859 -0.91798,0.05094 -1.83117,0.981418 l -1.10561,1.126531 1.17263,1.785365 c 1.39257,2.120217 2.43765,4.81178 2.87628,7.4077191 0.23624,1.3981959 0.47405,2.0105264 0.91964,2.3680579 0.73423,0.5891239 0.79248,1.7760209 0.11715,2.3871846 -0.63478,0.5744634 -1.44413,0.555752 -1.98868,-0.045971 z M -458.9062,6.9336691 c -2.64135,-2.8236069 -4.52222,-6.39269587 -5.5734,-10.575933 l -0.4654,-1.8520834 -0.33897,1.5875 c -0.66624,3.12018633 0.46204,7.0665235 2.72216,9.5211425 1.03915,1.1285908 4.10518,3.0271562 4.91024,3.0405573 0.19859,0.00331 -0.366,-0.7712287 -1.25463,-1.7211834 z m -4.51872,-17.0544641 c -0.11261,-0.22035 -0.27097,-0.579229 -0.3519,-0.797511 -0.0809,-0.218281 -0.15656,0.191428 -0.16805,0.910466 -0.019,1.1871245 0.0134,1.2604591 0.35191,0.7975097 0.21757,-0.2975425 0.28754,-0.6766478 0.16804,-0.9104647 z m -0.0248,-7.815484 c 0.74367,-1.975276 2.46638,-4.852506 4.18068,-6.982474 l 0.72724,-0.903572 -1.19062,0.189637 c -2.52318,0.401879 -4.44529,2.190643 -5.00762,4.660216 -0.31104,1.365957 -0.3571,3.623371 -0.10509,5.149558 0.19509,1.181399 0.10174,1.322765 1.39541,-2.113365 z m 37.31938,-11.126338 c 0,-1.073946 -1.32943,-2.229475 -2.55934,-2.224554 -1.86304,0.0075 -1.8603,0.375383 0.0106,1.421642 0.95245,0.532645 1.80353,1.084607 1.89127,1.226584 0.30116,0.487287 0.65748,0.25768 0.65748,-0.423672 z"
           id="path1596"
           inkscape:connector-curvature="0" />
        <path
           style="fill:#009cff;fill-opacity:1;stroke-width:0.26458335"
           d="m -430.23138,15.525148 c -0.43656,-0.127455 -1.32227,-0.566158 -1.96823,-0.974897 l -1.17449,-0.743162 -1.86822,0.481513 c -6.62249,1.706856 -13.80344,0.30549 -19.85989,-3.87567 -0.87313,-0.6027737 -2.24235,-1.3185404 -3.04271,-1.5905929 -3.13643,-1.0661016 -5.40628,-3.1120134 -6.77882,-6.110031 -0.91567,-2.0000833 -1.17234,-5.6431921 -0.55134,-7.8255575 0.54321,-1.9089767 0.66993,-8.4281526 0.21753,-11.1906636 -0.57647,-3.520183 0.23675,-6.597818 2.19852,-8.320274 0.93142,-0.817802 3.10084,-1.639952 4.32737,-1.639952 0.38923,0 1.43335,-0.639743 2.66395,-1.632242 2.23418,-1.801893 6.29745,-3.865745 9.03529,-4.589284 0.9978,-0.263693 3.17943,-0.509649 5.19669,-0.585872 3.82747,-0.144624 6.63543,0.261662 9.33926,1.351305 1.35353,0.545468 1.54988,0.562669 2.45216,0.214816 2.06726,-0.796974 4.25662,0.522196 4.30865,2.596124 0.0228,0.91042 0.22033,1.243814 1.4483,2.444971 3.52928,3.45221 5.40957,6.72947 6.79413,11.841849 0.65558,2.420678 0.67097,8.7309031 0.027,11.0667506 -1.16011,4.2079969 -3.03061,7.7112179 -5.64924,10.5803913 l -1.63293,1.7891469 0.41483,0.7834181 c 0.57895,1.0933531 0.53308,3.0121461 -0.0983,4.1114371 -0.96411,1.678649 -3.52463,2.480636 -5.79951,1.816476 z m 4.43803,-0.90564 c 0.87434,-0.61241 1.51149,-1.795616 1.51335,-2.810311 0.002,-1.03595 -0.46361,-2.6191691 -0.7701,-2.6191691 -0.10501,0 -0.8375,0.4851241 -1.62777,1.0780551 -0.79026,0.592932 -2.4765,1.588442 -3.7472,2.21225 -2.12423,1.042824 -2.27343,1.166384 -1.85208,1.533779 1.65889,1.446456 4.85673,1.745041 6.4838,0.605396 z m -12.11095,-0.941753 c 1.01865,-0.145356 2.23198,-0.388027 2.69629,-0.539265 l 0.84422,-0.274979 -1.00058,-1.54809 c -0.55032,-0.851448 -1.14414,-1.8946685 -1.3196,-2.3182691 -0.27337,-0.6599581 -0.43418,-0.7532767 -1.12371,-0.6520762 -0.64622,0.094845 -0.95347,-0.044802 -1.56022,-0.7090966 -0.48118,-0.5268304 -1.00914,-0.8272013 -1.45396,-0.8272013 -1.97357,0 -6.82419,-1.6605408 -10.04641,-3.4392447 l -1.99785,-1.1028362 0.68177,1.5434363 c 1.00904,2.2843252 1.36445,2.7340613 2.16063,2.7340613 1.40577,0 2.18847,1.5587822 1.25261,2.4946425 -1.09731,1.097312 -3.07096,-0.052771 -2.53042,-1.4745203 0.19728,-0.5188717 0.004,-1.1242119 -1.02688,-3.2243289 -1.12898,-2.2988509 -1.49129,-2.7745479 -3.26773,-4.29028762 -2.76556,-2.35970498 -4.64502,-4.66483178 -6.98896,-8.57183598 l -0.54661,-0.9111245 -0.46529,0.9757304 c -0.43509,0.9123813 -0.43846,1.1261302 -0.052,3.2923719 2.17085,12.1672034 13.64981,20.56883 25.74466,18.842913 z m 6.65581,-1.968005 c 6.78901,-3.1367146 11.69985,-9.6080605 13.04216,-17.1865448 0.58005,-3.2748776 0.18604,-7.3050652 -1.09322,-11.1821662 -1.70707,-5.173694 -6.16366,-10.396809 -10.98484,-12.874229 -1.18615,-0.609518 -1.45185,-0.552882 -2.13865,0.455874 -0.58579,0.860395 -0.59025,0.911624 -0.14639,1.684992 0.43307,0.754594 0.43322,0.835079 0.003,1.492069 -0.53131,0.810874 -1.59844,0.927868 -2.34022,0.256567 -0.91267,-0.825952 -0.28858,-2.462268 0.94622,-2.480898 0.366,-0.0055 0.79117,-0.398988 1.25156,-1.15823 l 0.69725,-1.149867 -2.41704,-0.759999 c -2.23066,-0.70139 -2.73331,-0.759703 -6.5181,-0.756158 -4.568,0.0043 -6.09853,0.303706 -9.44362,1.847514 -5.22499,2.411417 -9.06585,6.199303 -11.44055,11.282765 -1.92431,4.119342 -2.33839,7.052085 -1.18527,8.394796 0.0461,0.05372 0.71205,-0.451845 1.47981,-1.12347 0.76777,-0.671625 2.20895,-1.648357 3.20262,-2.170517 1.23665,-0.649843 1.89063,-1.1702 2.07277,-1.649269 0.30523,-0.802801 0.68014,-1.097724 1.40278,-1.103483 1.43689,-0.01145 2.00615,2.017659 0.78968,2.814726 -0.65011,0.425967 -0.73535,0.423351 -1.61341,-0.04952 l -0.92704,-0.499243 -1.71955,0.891547 c -2.12522,1.101871 -4.44006,3.267309 -4.19432,3.9236066 0.36615,0.9778762 1.93969,3.3728263 3.49886,5.3253111 1.47161,1.8428468 5.03982,5.2130511 5.27273,4.98014368 0.0512,-0.0511519 -0.0228,-0.80004444 -0.16429,-1.66420802 -0.14152,-0.86416626 -0.25799,-2.05076426 -0.25883,-2.63688776 -10e-4,-0.736907 -0.16479,-1.2054576 -0.5307,-1.518764 -0.63537,-0.5440177 -0.67365,-1.1925749 -0.11729,-1.9868938 0.81805,-1.1679264 2.76312,-0.428498 2.76312,1.0504117 0,0.2543043 -0.37073,0.7338298 -0.82386,1.0656068 l -0.82386,0.6032341 0.12665,2.2706277 c 0.0697,1.2488466 0.29157,2.60873615 0.49313,3.0219809 0.73716,1.5113027 7.23879,4.402844 11.68557,5.1970571 1.72471,0.3080385 1.8097,0.2981404 2.19782,-0.2559712 0.48969,-0.6991324 1.73069,-0.7691358 2.36634,-0.1334823 0.31614,0.3161374 0.40053,0.7041859 0.29481,1.3556509 -0.10307,0.6351059 0.0202,1.2448038 0.40519,2.0044755 0.83892,1.655292 2.11479,3.340703 2.52895,3.340703 0.20315,0 1.26528,-0.413938 2.36028,-0.919861 z m 5.02687,-15.1744097 c -0.63571,-0.7024503 -0.54832,-1.772121 0.19238,-2.354752 0.5818,-0.4576445 0.61328,-0.6031627 0.40944,-1.8926255 -0.48732,-3.0827778 -1.93587,-6.6453308 -3.4875,-8.5771538 l -0.59491,-0.740677 -2.21026,1.455016 c -2.45905,1.618797 -5.05638,2.780587 -8.19757,3.666788 -1.68395,0.475081 -2.17402,0.732583 -2.51069,1.319199 -0.7404,1.2900686 -2.82419,0.7202474 -2.82419,-0.772288 0,-1.28246 2.00517,-1.903316 2.74336,-0.849415 l 0.39211,0.559821 2.399,-0.688147 c 1.31945,-0.37848 3.38217,-1.182237 4.58382,-1.786125 2.38568,-1.198915 5.22754,-3.03604 5.22754,-3.379349 0,-0.332933 -2.62246,-2.725262 -4.08402,-3.725631 -1.8076,-1.237222 -3.95278,-2.241291 -6.11948,-2.864278 -2.20514,-0.63404 -4.34858,-0.92791 -4.34858,-0.596199 0,1.001369 -2.15535,1.459491 -2.63653,0.560397 -0.38972,-0.728206 -0.33873,-1.750873 0.1057,-2.119716 0.61895,-0.513682 2.09416,-0.237332 2.39513,0.448677 0.14365,0.327422 0.47609,0.595312 0.73876,0.595312 0.26267,0 1.35612,0.181469 2.4299,0.403263 3.89201,0.803916 7.43522,2.703369 10.53389,5.64703 l 1.5283,1.451855 1.053,-1.028226 c 0.91613,-0.894575 1.03237,-1.138189 0.8943,-1.874197 -0.18155,-0.967709 0.56463,-1.953892 1.47838,-1.953892 0.68145,0 1.5875,0.906049 1.5875,1.587501 0,0.856553 -0.99454,1.666404 -1.83902,1.497508 -0.59955,-0.119909 -0.91823,0.0512 -1.83485,0.985161 l -1.10928,1.130275 1.05586,1.581169 c 1.38079,2.067734 2.56815,5.073231 2.97241,7.5238148 0.24756,1.5007564 0.46935,2.0806464 0.93651,2.4486712 0.74572,0.5874729 0.80931,1.7708536 0.12827,2.3871846 -0.63478,0.5744634 -1.44413,0.555752 -1.98868,-0.045971 z M -458.9062,6.9336691 c -2.64615,-2.8287345 -5.13487,-7.7057674 -5.71831,-11.2059033 -0.23958,-1.4372458 -0.55782,-1.0323433 -0.79352,1.0096103 -0.36482,3.16045589 0.73239,6.5703213 2.85643,8.8771546 1.03899,1.1284029 4.10505,3.0269233 4.91003,3.0403218 0.19859,0.00331 -0.366,-0.7712287 -1.25463,-1.7211834 z m -4.51872,-17.0544641 c -0.11261,-0.22035 -0.27097,-0.579229 -0.3519,-0.797511 -0.0809,-0.218281 -0.15656,0.191428 -0.16805,0.910466 -0.019,1.1871245 0.0134,1.2604591 0.35191,0.7975097 0.21757,-0.2975425 0.28754,-0.6766478 0.16804,-0.9104647 z m -0.55755,-6.353761 c 0.55728,-1.968419 2.43796,-5.488305 3.93468,-7.364162 1.52027,-1.905375 1.45752,-2.152957 -0.41768,-1.648017 -2.59199,0.69795 -4.24598,2.891854 -4.49214,5.958509 -0.15106,1.88186 0.13884,4.822949 0.44088,4.472848 0.10845,-0.125704 0.34887,-0.764334 0.53426,-1.419178 z m 37.85213,-12.588061 c 0,-1.073946 -1.32943,-2.229475 -2.55934,-2.224554 -1.77448,0.0071 -1.86221,0.36725 -0.30631,1.257419 0.77575,0.443819 1.64857,0.992608 1.93961,1.219531 0.7431,0.579388 0.92604,0.529527 0.92604,-0.252396 z"
           id="path1598"
           inkscape:connector-curvature="0" />
        <path
           style="fill:#009cff;fill-opacity:1;stroke-width:0.26458335"
           d="m -430.23138,15.540523 c -0.43656,-0.135911 -1.32227,-0.581533 -1.96823,-0.990272 l -1.17449,-0.743162 -1.86822,0.502727 c -1.38951,0.373904 -2.85129,0.511183 -5.70469,0.535739 -3.28649,0.02828 -4.13919,-0.05462 -5.94832,-0.578318 -2.75746,-0.798217 -6.11847,-2.386465 -8.21289,-3.881017 -0.92198,-0.6579053 -1.83694,-1.1961921 -2.03325,-1.1961921 -0.19631,0 -1.22277,-0.4149461 -2.28103,-0.9221021 -2.07765,-0.9956879 -4.2028,-2.9283872 -5.05084,-4.5934418 -1.32357,-2.5987376 -1.69682,-5.9672592 -0.97314,-8.7825132 0.47796,-1.8593832 0.61128,-8.8031838 0.21569,-11.2342348 -0.88335,-5.428441 1.4225,-9.221927 5.96312,-9.810292 1.075,-0.139295 1.64574,-0.401833 2.51354,-1.156211 2.84523,-2.473337 6.14919,-4.167736 10.12083,-5.190357 2.37989,-0.612774 3.01307,-0.669512 6.34775,-0.56881 3.70507,0.111887 5.81877,0.498125 8.15437,1.490054 0.98114,0.416691 1.18824,0.424421 2.07185,0.07733 2.06202,-0.809986 4.18849,0.457095 4.29659,2.560172 0.0482,0.937259 0.27341,1.303155 1.68599,2.738903 4.00807,4.073793 6.16158,8.385365 6.95967,13.934024 1.02026,7.0932638 -1.7195,15.2777498 -6.73094,20.1073773 -0.91796,0.8846529 -0.92614,0.9115345 -0.51789,1.7010115 0.54766,1.0590582 0.5513,3.0153052 0.008,4.0553192 -0.23992,0.458893 -0.85368,1.092351 -1.3639,1.407684 -1.04779,0.647573 -3.29401,0.914873 -4.50911,0.536583 z m 4.06613,-0.740678 c 1.64079,-0.75139 2.30596,-2.741501 1.59653,-4.776586 -0.15976,-0.4582768 -0.37638,-0.8332311 -0.48138,-0.8332311 -0.10501,0 -0.8375,0.4857115 -1.62777,1.0793601 -0.79026,0.593648 -2.47471,1.575914 -3.74321,2.182812 -1.26851,0.606899 -2.3103,1.170826 -2.31511,1.25317 -0.0162,0.276974 2.0263,1.296641 3.06401,1.52966 1.19618,0.268602 2.25775,0.136871 3.50693,-0.435185 z m -11.73905,-1.12209 c 1.01865,-0.145356 2.23198,-0.388027 2.69629,-0.539265 l 0.84422,-0.274979 -1.00058,-1.54809 c -0.55032,-0.851448 -1.14414,-1.8946685 -1.3196,-2.3182691 -0.27616,-0.6667235 -0.43046,-0.7538244 -1.14864,-0.648417 -0.66492,0.097589 -0.94201,-0.019209 -1.39581,-0.5883169 -0.46663,-0.5852028 -1.00487,-0.7996952 -3.06065,-1.2196631 -2.90273,-0.5929868 -6.50694,-1.9480239 -8.77473,-3.2989414 -0.87687,-0.5223457 -1.6394,-0.9046237 -1.69451,-0.8495057 -0.0551,0.055118 0.34745,0.9820725 0.89461,2.059903 0.86773,1.7093406 1.09622,1.9709712 1.78857,2.0479729 1.5342,0.1706378 2.25173,1.5909396 1.28973,2.5529408 -1.06701,1.0670065 -3.01691,-0.1716378 -2.48259,-1.5770199 0.16442,-0.4324402 -0.0383,-1.0870194 -0.81553,-2.633554 -0.56887,-1.1319431 -1.03432,-2.2165231 -1.03432,-2.4101796 0,-0.1936565 -0.89637,-1.0845509 -1.99193,-1.97976596 -2.88319,-2.35594524 -5.1071,-5.02510434 -7.4681,-8.96332144 l -0.53938,-0.8996998 -0.46113,0.89172 c -0.41189,0.7965149 -0.4268,1.1159358 -0.13965,2.9917046 0.8496,5.54995564 4.13372,11.1907533 8.40314,14.4332168 5.08225,3.8597738 11.49124,5.6162128 17.41059,4.7715298 z m 6.74321,-1.990217 c 3.58468,-1.7179153 7.05846,-4.6788225 9.23978,-7.8756162 1.21673,-1.7831488 2.78519,-5.2569402 3.36567,-7.4541857 0.65001,-2.4604293 0.662,-8.2487971 0.0221,-10.6465611 -1.85006,-6.931868 -6.09177,-12.364472 -11.9992,-15.368067 l -1.09514,-0.556818 -0.70036,1.010628 c -0.68607,0.989994 -0.69101,1.026939 -0.24188,1.809503 0.43381,0.755859 0.43399,0.836266 0.003,1.493324 -0.53131,0.810874 -1.59844,0.927868 -2.34022,0.256567 -0.91228,-0.825597 -0.28992,-2.459073 0.94621,-2.483479 0.35559,-0.007 0.80941,-0.410143 1.26591,-1.124479 l 0.7116,-1.113535 -0.57931,-0.225473 c -3.69673,-1.438809 -9.01094,-1.896501 -12.90186,-1.111185 -4.54489,0.917312 -8.55346,3.106664 -11.88682,6.4922 -2.43199,2.47006 -3.49459,4.063952 -4.94345,7.415136 -1.22935,2.843459 -1.62918,5.135353 -1.14947,6.588892 0.19623,0.59458 0.37201,1.081055 0.39063,1.081055 0.0186,0 0.65682,-0.584878 1.41824,-1.299729 0.76141,-0.71485 2.27442,-1.756647 3.36225,-2.315104 1.08782,-0.558456 1.97837,-1.184594 1.979,-1.391417 0.002,-0.572475 0.81124,-1.34375 1.41037,-1.34375 1.4615,0 2.04358,2.013656 0.81481,2.818778 -0.65011,0.425967 -0.73535,0.423351 -1.61341,-0.04952 l -0.92704,-0.499243 -1.65864,0.859967 c -1.78757,0.92681 -3.68273,2.420957 -4.12945,3.255658 -0.3649,0.6818094 0.91422,2.9819726 3.32615,5.9812417 1.50901,1.8764647 5.08073,5.2801124 5.29182,5.04279962 0.0389,-0.0437118 -0.0643,-1.28776149 -0.22921,-2.76455452 -0.20775,-1.860095 -0.44216,-2.8420087 -0.76292,-3.1958334 -0.57128,-0.6301819 -0.58428,-1.104257 -0.0511,-1.8654236 0.51424,-0.7341738 1.53184,-0.760992 2.23396,-0.058872 0.72912,0.7291202 0.66412,1.249127 -0.26459,2.1166666 -0.72257,0.6749865 -0.79318,0.8920957 -0.78743,2.4212577 0.009,2.3890923 0.37223,3.6976104 1.21287,4.3690435 1.95436,1.5609755 7.567,3.799504 10.91119,4.3517847 1.84413,0.3045513 1.93311,0.2948252 2.31704,-0.2533095 0.91309,-1.3036312 2.97451,-0.3010296 2.65595,1.291762 -0.11339,0.5669995 0.009,1.1575072 0.39783,1.92541 0.8862,1.7484062 2.12867,3.3565512 2.59331,3.3565512 0.2341,0 1.31023,-0.423934 2.39141,-0.942073 z m 5.08962,-15.0802205 c -0.80745,-0.5655627 -0.78198,-1.7784128 0.0511,-2.4337248 0.63399,-0.4986973 0.63639,-0.5186548 0.2971,-2.4724757 -0.18813,-1.0833444 -0.67143,-2.800512 -1.07402,-3.815925 -0.68292,-1.722483 -2.27681,-4.450176 -2.78333,-4.763221 -0.12274,-0.07586 -1.03375,0.407664 -2.02447,1.07449 -0.99072,0.666826 -2.63475,1.608471 -3.65339,2.092545 -1.76333,0.837957 -5.88762,2.261636 -6.5621,2.265195 -0.17439,9.26e-4 -0.51989,0.358107 -0.76779,0.79375 -0.33753,0.593177 -0.64283,0.7920766 -1.21576,0.7920766 -1.41756,0 -2.15281,-1.5713006 -1.15696,-2.4725346 0.67741,-0.613049 1.78663,-0.553188 2.25951,0.121939 l 0.39211,0.559821 2.45803,-0.705079 c 2.60219,-0.746432 7.40822,-3.095847 8.95858,-4.379383 l 0.92604,-0.766663 -1.19062,-1.21822 c -2.41277,-2.46869 -5.99995,-4.544033 -9.525,-5.510637 -1.91063,-0.523913 -3.96875,-0.76233 -3.96875,-0.459747 0,0.930966 -1.75761,1.393432 -2.49465,0.656396 -0.49203,-0.492034 -0.5478,-1.727609 -0.0983,-2.177143 0.66426,-0.664258 2.59292,-0.121832 2.59292,0.729246 0,0.11836 0.68036,0.300205 1.51191,0.4041 4.2511,0.531139 8.64777,2.691843 12.05494,5.924286 l 1.5283,1.449933 1.053,-1.028226 c 0.91613,-0.894575 1.03237,-1.138189 0.8943,-1.874197 -0.29648,-1.580361 1.4181,-2.54334 2.53671,-1.424725 1.06057,1.060567 0.39678,2.504871 -1.13131,2.461556 -0.76294,-0.02163 -1.1291,0.178422 -2.05685,1.123738 l -1.12869,1.150047 0.71325,0.935123 c 1.32904,1.74246 2.80196,5.223042 3.28747,7.7684567 0.36188,1.8972319 0.59503,2.5285727 1.05198,2.8486365 0.78714,0.5513308 0.78662,1.7989154 -0.001,2.3505663 -0.32333,0.226531 -0.71356,0.4118769 -0.86708,0.4118769 -0.15352,0 -0.54375,-0.1853459 -0.86717,-0.4118769 z m -32.65089,10.5109382 c -2.8117,-3.0369749 -4.60009,-6.35823128 -5.64106,-10.4761164 l -0.59695,-2.3614274 -0.29644,1.3822627 c -0.16305,0.7602458 -0.29645,1.7768729 -0.29645,2.2591713 0,2.81154983 1.36142,6.1925783 3.22695,8.0140229 1.09186,1.0660539 3.92218,2.7143366 4.67291,2.7213401 0.19757,0.00185 -0.28346,-0.6908218 -1.06896,-1.5392532 z m -4.70256,-17.2390507 c -0.11261,-0.22035 -0.27097,-0.579229 -0.3519,-0.797511 -0.0809,-0.218281 -0.15656,0.191428 -0.16805,0.910466 -0.019,1.1871245 0.0134,1.2604591 0.35191,0.7975097 0.21757,-0.2975425 0.28754,-0.6766478 0.16804,-0.9104647 z m -0.5407,-6.287615 c 0.79205,-2.459299 2.51086,-5.684597 4.04761,-7.595247 1.28486,-1.59747 1.28544,-1.599106 0.60027,-1.683061 -1.04279,-0.127775 -3.41404,1.07969 -4.2356,2.156811 -0.96247,1.261865 -1.47138,3.057516 -1.46784,5.179173 0.003,1.616863 0.23242,3.728262 0.40564,3.728262 0.0411,0 0.33356,-0.803672 0.64992,-1.785938 z m 37.83528,-12.521915 c 0,-1.290577 -1.24317,-2.360898 -2.74216,-2.360898 -0.65745,0 -1.26192,0.107696 -1.34327,0.239325 -0.0813,0.131628 0.47717,0.593143 1.24115,1.025589 0.76399,0.432445 1.68673,1.035163 2.05053,1.339373 0.83768,0.700468 0.79375,0.713939 0.79375,-0.243389 z"
           id="path1600"
           inkscape:connector-curvature="0" />
        <path
           style="fill:#009cff;fill-opacity:1;stroke-width:0.26458335"
           d="m -430.51423,15.338807 c -0.73765,-0.263337 -1.65225,-0.723482 -2.03245,-1.022546 l -0.69126,-0.543748 -1.93631,0.521777 c -2.97753,0.80236 -8.88064,0.786972 -11.72108,-0.03055 -2.69927,-0.776896 -6.08654,-2.36465 -8.16548,-3.827502 -0.8959,-0.630399 -2.10515,-1.2847427 -2.68724,-1.4540972 -1.8115,-0.5270473 -4.37315,-2.2257253 -5.57427,-3.6964091 -2.16818,-2.6547578 -2.99504,-6.612943 -2.14904,-10.2873785 0.48591,-2.1104278 0.7594,-8.8079592 0.40827,-9.9978552 -0.4038,-1.368358 -0.31644,-5.298282 0.14892,-6.699359 0.85251,-2.566673 2.81738,-4.098048 5.71091,-4.450958 1.18561,-0.144603 1.65129,-0.360764 2.51355,-1.166761 2.23584,-2.089955 5.42254,-3.833705 9.04965,-4.95194 2.14476,-0.661228 2.68045,-0.717452 6.82535,-0.716354 4.45205,0.0012 4.52508,0.01061 7.16312,0.925226 2.36582,0.820235 2.7522,0.886914 3.43958,0.593583 1.11952,-0.477737 1.9776,-0.425316 2.97311,0.181629 0.93918,0.572598 1.73617,2.07464 1.46953,2.769505 -0.1124,0.292907 0.45163,1.056642 1.81838,2.462186 2.34553,2.412123 4.13679,5.088705 5.22605,7.809023 1.36694,3.413753 1.68963,5.222532 1.6845,9.442087 -0.004,3.4117095 -0.0844,4.0986499 -0.72505,6.2046539 -0.39621,1.3025067 -1.2169,3.32256342 -1.82376,4.4890187 -1.04803,2.014445 -3.42875,5.2670817 -4.63896,6.3379298 -0.52989,0.4688787 -0.53739,0.5380567 -0.14123,1.3041339 0.23009,0.4449472 0.42669,1.3624137 0.4369,2.0388187 0.0477,3.161022 -3.15034,4.990862 -6.58169,3.765891 z m 4.58874,-0.652322 c 1.07907,-0.648282 1.64723,-1.713953 1.64723,-3.089619 0,-1.042138 -0.44705,-2.4068381 -0.78843,-2.4068381 -0.0959,0 -0.82091,0.4864894 -1.61118,1.0810871 -0.79026,0.594599 -2.47749,1.576864 -3.7494,2.182813 -1.2719,0.605949 -2.3137,1.169098 -2.3151,1.251442 -0.005,0.281776 2.04083,1.29852 3.07019,1.525979 1.33937,0.295966 2.66896,0.102608 3.74669,-0.544864 z m -11.15398,-1.143648 c 1.29214,-0.225333 2.43652,-0.496862 2.54305,-0.603399 0.10654,-0.106534 -0.1971,-0.743373 -0.67475,-1.415195 -0.47764,-0.671822 -1.07757,-1.6852636 -1.33318,-2.2520937 -0.42377,-0.9397498 -0.54186,-1.0215934 -1.3397,-0.9284521 -0.73405,0.085696 -0.96883,-0.029676 -1.45781,-0.7163858 -0.41153,-0.5779506 -0.79841,-0.8185336 -1.31626,-0.8185336 -2.00964,0 -7.53205,-1.9034098 -10.40124,-3.5849983 -0.87747,-0.514268 -1.64124,-0.8891826 -1.69728,-0.8331465 -0.056,0.056039 0.34578,0.9837473 0.89294,2.0615778 0.86773,1.7093406 1.09622,1.9709712 1.78857,2.0479729 1.57699,0.175395 2.2558,1.5935828 1.21402,2.5363779 -1.13483,1.0270094 -2.94455,-0.1462828 -2.40688,-1.560457 0.16442,-0.4324402 -0.0383,-1.0870194 -0.81553,-2.633554 -0.56887,-1.1319431 -1.03432,-2.2084903 -1.03432,-2.3923281 0,-0.1838352 -1.06674,-1.2415177 -2.37053,-2.35039965 -2.47631,-2.10612305 -5.66486,-5.95130205 -6.81168,-8.21443685 l -0.66495,-1.3122248 -0.51385,0.643329 c -0.43425,0.5436712 -0.49114,0.9182736 -0.36727,2.4181991 0.0806,0.9761803 0.45786,2.7621178 0.83831,3.9687501 2.08226,6.6040927 6.74134,11.7941144 12.95269,14.4287506 4.20703,1.784474 8.52361,2.287016 12.97565,1.510647 z m 5.91838,-1.855299 c 6.64089,-3.1825614 11.39458,-9.2909201 12.85262,-16.5152438 0.82477,-4.0865769 0.17538,-9.5819792 -1.6091,-13.6170152 -2.0292,-4.588392 -6.07646,-8.912445 -10.3859,-11.096202 l -1.37308,-0.695793 -0.67622,1.021835 c -0.66066,0.998324 -0.66566,1.040221 -0.21755,1.821005 0.43397,0.756158 0.43417,0.836547 0.004,1.493621 -0.74285,1.133711 -2.82409,0.683719 -2.82409,-0.610603 0,-0.704128 0.78222,-1.604581 1.40407,-1.616309 0.38602,-0.0073 0.81774,-0.382546 1.28948,-1.120861 0.39005,-0.610455 0.66637,-1.152721 0.61406,-1.205035 -0.0523,-0.05231 -1.08582,-0.393942 -2.29668,-0.759172 -3.25178,-0.980836 -8.4469,-1.144923 -11.694,-0.369354 -4.3824,1.046732 -8.6177,3.44687 -11.58437,6.564848 -4.00241,4.206536 -6.78773,10.907815 -5.79012,13.930597 0.17454,0.528874 0.34322,0.961588 0.37485,0.961588 0.0316,0 0.70699,-0.602205 1.50083,-1.338234 0.79384,-0.73603 2.30654,-1.766167 3.36157,-2.289196 1.12216,-0.556308 1.91823,-1.11777 1.91823,-1.35291 0,-0.611815 0.80518,-1.36966 1.45521,-1.36966 1.49703,0 1.95659,2.207321 0.59482,2.856987 -0.6298,0.300462 -0.83664,0.283232 -1.53217,-0.127629 -0.80016,-0.472665 -0.81246,-0.470638 -2.52132,0.415359 -1.8813,0.975409 -4.34654,3.035073 -4.34654,3.6314583 0,1.1933343 4.25324,6.8332483 6.79797,9.01430663 2.13946,1.83370007 2.29045,1.90433587 2.08957,0.97751636 -0.0907,-0.41838827 -0.21593,-1.63902759 -0.27832,-2.71253219 -0.0895,-1.540219 -0.23492,-2.0811411 -0.68952,-2.5650402 -1.05459,-1.122553 -0.017,-2.7599058 1.50665,-2.3774982 0.96016,0.2409851 1.34598,1.2748392 0.79154,2.121027 -0.24228,0.3697632 -0.61635,0.6722957 -0.83128,0.6722957 -0.30929,0 -0.38946,0.3999838 -0.38446,1.9182292 0.009,2.64405004 0.34809,3.9153836 1.23702,4.6337644 2.04234,1.6505052 8.00972,3.9643553 11.41227,4.4251033 1.25431,0.1698493 1.45409,0.1292543 1.80094,-0.3659452 0.89523,-1.2781174 2.95699,-0.2889435 2.61769,1.2558898 -0.1224,0.5572893 -0.002,1.127723 0.40816,1.9360013 0.97208,1.9149958 2.09673,3.3948738 2.57997,3.3948738 0.25177,0 1.34237,-0.423934 2.42355,-0.942073 z m 5.08962,-15.0802205 c -0.82467,-0.5776251 -0.79072,-1.8243709 0.0649,-2.3850283 0.58484,-0.3831987 0.63696,-0.556424 0.49941,-1.6597445 -0.35491,-2.8469547 -2.60882,-8.2047657 -3.9036,-9.2793387 -0.29599,-0.245649 -0.82365,-0.01577 -2.58074,1.124291 -2.89144,1.876075 -6.56137,3.446081 -9.35243,4.001002 -0.50453,0.10031 -0.95798,0.444525 -1.24447,0.944671 -0.33647,0.587421 -0.64462,0.7868576 -1.21576,0.7868576 -0.86707,0 -1.64081,-0.7079026 -1.64081,-1.5011806 0,-1.265313 2.00388,-1.905162 2.72816,-0.871113 0.33587,0.479528 0.50316,0.509556 1.53635,0.275769 3.00014,-0.678856 8.43745,-3.190823 10.28757,-4.752727 l 0.92604,-0.781778 -1.19062,-1.223655 c -2.44185,-2.509582 -6.69259,-4.927582 -9.92188,-5.64397 -2.96157,-0.656998 -3.50916,-0.667846 -3.69787,-0.07326 -0.35647,1.123144 -2.39415,1.009608 -2.68509,-0.149608 -0.2652,-1.056614 0.2832,-1.94723 1.19902,-1.94723 0.74224,0 1.61207,0.570972 1.61207,1.058194 0,0.124656 0.68461,0.31008 1.52135,0.412055 4.25651,0.518742 8.62624,2.660966 12.0462,5.905552 l 1.52901,1.450602 1.16974,-1.148017 c 0.96664,-0.94869 1.12356,-1.234319 0.90373,-1.645071 -0.57065,-1.066259 0.5138,-2.265598 1.76468,-1.951647 0.78969,0.198199 1.26828,1.061416 1.05644,1.905459 -0.17645,0.703025 -1.12351,1.197309 -1.90495,0.994215 -0.33345,-0.08666 -0.86257,0.250947 -1.64607,1.050294 l -1.15465,1.178013 0.85035,1.235944 c 1.40048,2.035518 2.59749,4.932093 3.07294,7.4359733 0.35013,1.8439447 0.58391,2.4649827 1.07063,2.8441491 0.8167,0.6362383 0.83416,1.8503239 0.0346,2.4103251 -0.32342,0.226531 -0.71365,0.4118769 -0.86717,0.4118769 -0.15352,0 -0.54375,-0.1853459 -0.86717,-0.4118769 z m -32.5126,10.6644812 c -2.83139,-3.0030685 -4.76426,-6.56892692 -5.77253,-10.6494793 l -0.58839,-2.38125 -0.30413,1.4020853 c -1.07302,4.94668443 1.26551,10.0578471 5.59067,12.2191543 2.31127,1.1549539 2.58053,1.0069619 1.07438,-0.5905103 z m -4.85295,-16.6017921 c 0.21237,-0.3968221 0.18439,-0.7096946 -0.11239,-1.2567726 l -0.39516,-0.728415 -0.0106,1.256771 c -0.0116,1.3796117 0.0918,1.5250241 0.51814,0.7284166 z m -0.53053,-7.0784166 c 0.78978,-2.460454 2.75361,-6.111638 4.13909,-7.695455 0.6349,-0.725788 1.15437,-1.3897 1.15437,-1.475361 0,-0.257065 -1.05964,-0.176598 -2.20895,0.167745 -2.5683,0.769481 -4.14418,3.460621 -4.13814,7.066718 0.003,1.611992 0.23267,3.722291 0.40564,3.722291 0.0411,0 0.3327,-0.803672 0.64799,-1.785938 z m 37.14538,-14.120765 c -0.60398,-0.630423 -0.94734,-0.762048 -1.98789,-0.762048 -0.69179,0 -1.32336,0.106085 -1.4035,0.235743 -0.0801,0.129658 0.68084,0.726776 1.69105,1.326929 1.0102,0.600152 1.93194,1.238209 2.0483,1.417903 0.13356,0.206241 0.24302,-0.0021 0.29685,-0.564881 0.0654,-0.683895 -0.0848,-1.069123 -0.64481,-1.653646 z"
           id="path1602"
           inkscape:connector-curvature="0" />
        <path
           style="fill:#009cff;fill-opacity:1;stroke-width:0.26458335"
           d="m -430.51423,15.337738 c -0.73765,-0.26275 -1.65673,-0.725937 -2.0424,-1.029308 l -0.70122,-0.55158 -2.05864,0.52311 c -3.1193,0.792629 -8.4668,0.785765 -11.45135,-0.0147 -2.64665,-0.709835 -6.55248,-2.538183 -8.34468,-3.906195 -0.69853,-0.533204 -1.961,-1.2027957 -2.80549,-1.4879848 -5.86027,-1.9790436 -8.98081,-7.6142348 -7.54787,-13.6302434 0.41843,-1.7567222 0.48952,-4.4762129 0.35464,-13.5674788 -0.0404,-2.726579 0.0193,-3.166412 0.57467,-4.233334 0.3409,-0.654843 0.86202,-1.452505 1.15805,-1.77258 0.7719,-0.834589 2.4918,-1.57316 4.17526,-1.792967 1.19138,-0.155556 1.64709,-0.37379 2.51355,-1.203718 1.44639,-1.385419 4.60758,-3.283828 7.00615,-4.207456 5.40503,-2.081339 11.68322,-2.149126 17.05442,-0.184141 1.47848,0.540882 1.69323,0.557601 2.74405,0.213646 0.9681,-0.316876 1.28306,-0.318727 2.08825,-0.01227 1.20073,0.457002 2.02178,1.545487 2.01059,2.665502 -0.007,0.724122 0.31008,1.202807 1.89214,2.854401 2.29849,2.399505 3.27852,3.806618 4.65125,6.67824 2.16313,4.525064 2.8797,10.0726206 1.90597,14.7556637 -0.92326,4.44029045 -3.05697,8.6306581 -6.04732,11.8762914 l -1.3156,1.4279059 0.4561,1.347287 c 0.25734,0.76017 0.39172,1.694469 0.30836,2.143972 -0.52,2.804041 -3.49131,4.207722 -6.57888,3.107934 z m 4.46174,-0.509339 c 1.02965,-0.518644 1.77206,-1.849416 1.77324,-3.178527 10e-4,-1.146728 -0.44444,-2.4598441 -0.83448,-2.4598441 -0.12176,0 -0.96585,0.5481214 -1.87576,1.2180461 -0.90992,0.669925 -2.57677,1.652191 -3.70413,2.182813 -1.12735,0.530622 -2.05009,1.032139 -2.05052,1.114483 -0.002,0.290155 2.25108,1.410978 3.16995,1.577271 1.16369,0.210598 2.55914,0.03061 3.5217,-0.454242 z m -9.99972,-1.418203 c 0.7276,-0.177851 1.40989,-0.400111 1.5162,-0.493911 0.10632,-0.0938 -0.19751,-0.72022 -0.67516,-1.392042 -0.47764,-0.671822 -1.08462,-1.7008793 -1.34883,-2.2867965 -0.31268,-0.6933988 -0.6083,-1.0162196 -0.84679,-0.9247029 -0.65909,0.2529205 -1.70191,-0.1828377 -1.94072,-0.8109585 -0.1948,-0.5123736 -0.49158,-0.6452923 -1.77658,-0.7956788 -2.89881,-0.3392594 -6.70235,-1.6725265 -9.84829,-3.4521537 -0.93005,-0.5261214 -1.73027,-0.9173105 -1.77827,-0.8693124 -0.048,0.047998 0.34584,1.0035328 0.8752,2.1234109 0.91152,1.9283707 1.00835,2.0361434 1.82941,2.0361434 1.45216,0 2.20025,1.5735194 1.18493,2.4923671 -1.1495,1.0402804 -2.94399,-0.1477566 -2.39685,-1.5868333 0.17792,-0.4679764 -0.003,-1.0507768 -0.81553,-2.6200153 -0.57439,-1.1099879 -1.04435,-2.1790607 -1.04435,-2.3757149 0,-0.1966542 -0.92802,-1.1406929 -2.06226,-2.09786279 -2.83368,-2.39129101 -5.34802,-5.36038431 -6.94047,-8.19573081 l -0.87139,-1.5515008 -0.48102,0.6254591 c -0.59527,0.7740254 -0.61219,1.7865249 -0.0736,4.4069239 1.92779,9.3800455 9.73853,16.6270013 19.55692,18.1453003 1.3557,0.209642 6.54707,-0.03653 7.9375,-0.376391 z m 4.89112,-1.722658 c 3.77436,-1.8088129 7.46565,-5.0486227 9.69068,-8.5054145 4.75275,-7.3838436 4.67168,-17.3858175 -0.20143,-24.8506685 -2.10638,-3.226658 -5.41043,-6.24007 -8.63163,-7.872378 l -1.37308,-0.695793 -0.67622,1.021835 c -0.66066,0.998324 -0.66566,1.040221 -0.21755,1.821005 0.43397,0.756158 0.43417,0.836547 0.004,1.493621 -0.62463,0.953292 -1.84772,0.954531 -2.47151,0.0025 -0.40607,-0.619746 -0.41274,-0.764687 -0.0639,-1.389062 0.22207,-0.397464 0.67022,-0.733969 1.0426,-0.78285 0.42385,-0.05564 0.90494,-0.473586 1.37052,-1.190625 l 0.7174,-1.104902 -0.71741,-0.316484 c -0.39458,-0.174067 -1.81533,-0.574911 -3.15724,-0.890764 -2.07476,-0.48835 -2.96552,-0.554737 -5.95313,-0.443676 -5.02691,0.18687 -7.85516,1.08234 -11.97996,3.793051 -4.92658,3.237623 -8.61806,8.621833 -9.77822,14.26204 -0.27144,1.319623 -0.26227,1.777246 0.0544,2.711979 0.20949,0.618464 0.40481,1.124479 0.43404,1.124479 0.0292,0 0.6879,-0.586625 1.46373,-1.303613 0.77582,-0.716987 2.28852,-1.749233 3.36157,-2.293881 1.11898,-0.567966 1.95098,-1.159684 1.95098,-1.387533 0,-0.545929 0.78309,-1.364973 1.30505,-1.364973 0.71554,0 1.60537,0.786882 1.60537,1.419642 0,1.375101 -1.62468,2.096157 -2.57709,1.14375 -0.3745,-0.374506 -0.57745,-0.330439 -2.16869,0.470895 -1.99489,1.00461 -4.51464,3.138298 -4.51464,3.8229302 0,0.9525264 3.31624,5.4806056 5.87773,8.0255957 1.42803,1.41882816 2.72426,2.57968755 2.88051,2.57968755 0.18771,0 0.21952,-0.38153711 0.0938,-1.12447918 -0.10468,-0.61846355 -0.2168,-1.79794427 -0.24915,-2.62106577 -0.0419,-1.0651913 -0.22251,-1.7046786 -0.62667,-2.2184942 -0.70517,-0.8964718 -0.71306,-1.2990909 -0.0387,-1.9734609 0.84944,-0.8494396 1.99193,-0.6271261 2.40855,0.4686723 0.28763,0.7565337 -0.2923,1.9125777 -0.95944,1.9125777 -0.31116,0 -0.39048,0.4177824 -0.3893,2.0505208 0.002,3.21284078 0.28766,3.891296 2.14019,5.088644 2.06879,1.3371248 5.02856,2.55338 8.12534,3.3389438 3.06211,0.7767691 3.79292,0.7949751 4.22368,0.1052248 0.80095,-1.282528 2.91633,-0.2314416 2.58355,1.2837081 -0.1224,0.5572893 -0.002,1.127723 0.40816,1.9360013 0.97208,1.9149958 2.09673,3.3948738 2.57997,3.3948738 0.25177,0 1.34237,-0.423934 2.42355,-0.942073 z m 5.08962,-15.0802205 c -0.81945,-0.5739686 -0.78358,-1.7814369 0.0716,-2.4103251 0.64158,-0.4718076 0.65208,-0.5317066 0.38323,-2.1875856 -0.39294,-2.4202508 -1.18382,-4.6414628 -2.36902,-6.6534628 -1.5231,-2.585639 -1.53716,-2.591049 -3.4159,-1.315217 -2.37379,1.612008 -6.05831,3.321268 -8.61577,3.996878 -1.87823,0.496176 -2.31922,0.71474 -2.59074,1.284044 -0.58989,1.2368278 -2.83685,0.851351 -2.83685,-0.486674 0,-1.436284 1.95515,-2.17086 2.75158,-1.033804 0.39768,0.567766 0.41144,0.568555 2.07261,0.118897 2.54309,-0.688382 5.85778,-2.119759 7.99832,-3.453898 2.73499,-1.704643 2.7999,-1.817564 1.70482,-2.965683 -3.02012,-3.166386 -7.44015,-5.488751 -11.75981,-6.17882 -1.71168,-0.273442 -1.76408,-0.264473 -2.27895,0.390075 -1.25327,1.593275 -3.29784,0.07722 -2.33135,-1.728692 0.47672,-0.890755 2.63653,-0.443134 2.63653,0.546421 0,0.124656 0.68461,0.31008 1.52135,0.412055 4.29725,0.523708 8.71855,2.717219 12.16981,6.037737 l 1.38804,1.335454 1.17842,-1.156536 c 0.94262,-0.925114 1.12812,-1.250529 0.92703,-1.626271 -0.49233,-0.919932 0.34248,-2.091883 1.49011,-2.091883 0.50069,0 1.43357,0.95479 1.43357,1.467235 0,0.717149 -1.24331,1.737796 -1.91264,1.570114 -0.46653,-0.116874 -0.8591,0.112665 -1.75556,1.026507 l -1.15465,1.177043 0.78833,1.149863 c 1.69108,2.466608 2.98255,5.815846 3.36809,8.7346688 0.12027,0.9105583 0.3334,1.3463905 0.81164,1.6597445 0.85131,0.5577999 0.88301,1.8060062 0.0605,2.3821152 -0.32342,0.226531 -0.71365,0.4118769 -0.86717,0.4118769 -0.15352,0 -0.54375,-0.1853459 -0.86717,-0.4118769 z m -32.37787,10.7967729 c -2.81503,-2.9672678 -4.86189,-6.68888375 -5.85891,-10.6526993 l -0.62557,-2.4870463 -0.30972,1.2300056 c -1.0542,4.18659734 0.76201,9.1393513 4.26657,11.6348167 0.64665,0.4604544 3.46633,1.7665012 3.86451,1.7899962 0.0585,0.00347 -0.54306,-0.6783281 -1.33688,-1.5150729 z m -4.98768,-16.7340838 c 0.21237,-0.3968221 0.18439,-0.7096946 -0.11239,-1.2567726 l -0.39516,-0.728415 -0.0106,1.256771 c -0.0116,1.3796117 0.0918,1.5250241 0.51814,0.7284166 z m -0.5133,-7.0784166 c 1.04041,-3.161395 2.71687,-6.132639 4.69667,-8.324037 l 0.90572,-1.002526 h -0.7277 c -3.52046,0 -5.95206,2.952751 -5.94555,7.219822 0.003,1.75725 0.22596,3.892679 0.40701,3.892679 0.0419,0 0.34059,-0.803672 0.66385,-1.785938 z m 37.81998,-12.597775 c 0,-1.377953 -1.05843,-2.285038 -2.6663,-2.285038 -0.69917,0 -1.33678,0.106085 -1.41692,0.235743 -0.0801,0.129658 0.68084,0.726776 1.69105,1.326929 1.0102,0.600152 1.9092,1.208443 1.99777,1.351757 0.28376,0.459135 0.3944,0.28258 0.3944,-0.629391 z"
           id="path1604"
           inkscape:connector-curvature="0" />
        <path
           style="fill:#009cff;fill-opacity:1;stroke-width:0.26458335"
           d="m -427.80133,15.427027 c 2.66392,-0.64588 3.66455,-1.881595 3.46566,-4.279863 -0.19021,-2.2937311 -0.47846,-2.3956936 -2.48313,-0.878366 -0.94479,0.71511 -2.66468,1.742408 -3.82196,2.28288 -1.15729,0.540475 -2.10416,1.054844 -2.10416,1.143045 0,0.207807 1.95048,1.303613 2.86447,1.609302 0.62708,0.209727 0.60438,0.22121 -0.19996,0.101126 -0.49905,-0.07451 -1.45155,-0.480766 -2.11667,-0.902798 l -1.2093,-0.767334 -1.8732,0.482243 c -6.60194,1.699628 -13.63993,0.380529 -19.42398,-3.640556 -0.94491,-0.6568991 -2.13553,-1.3591059 -2.64584,-1.5604538 -0.5103,-0.2013479 -0.65098,-0.3129598 -0.31264,-0.2480231 0.51902,0.09961 0.41474,-0.096017 -0.66705,-1.251421 -3.17345,-3.3894077 -5.59231,-8.05251707 -6.3213,-12.1862983 -0.33051,-1.8741496 -0.77057,-0.2975213 -0.77057,2.7607392 0,2.68588867 0.0371,2.86664142 0.97659,4.7625001 1.11653,2.2530462 2.61668,3.8438799 4.71195,4.9967992 0.80036,0.4403989 1.33614,0.8017669 1.19062,0.8030369 -0.57805,0.00505 -3.08346,-1.6425572 -4.112,-2.7041317 -2.75815,-2.8467447 -3.79985,-6.87199389 -2.79311,-10.7928993 0.42685,-1.662438 0.57878,-8.2516522 0.28422,-12.3275242 -0.22441,-3.105397 0.0683,-4.715582 1.14795,-6.315044 0.85995,-1.273963 2.8927,-2.381933 4.86863,-2.653694 1.14277,-0.15717 1.6339,-0.410218 2.78164,-1.433182 2.87005,-2.558033 7.43752,-4.616869 11.79378,-5.316173 3.85515,-0.618863 9.96232,0.09146 12.62505,1.468412 0.64499,0.333534 0.88567,0.328687 1.96654,-0.0396 0.67739,-0.230807 1.28545,-0.365804 1.35126,-0.299992 0.0658,0.06581 -0.37437,0.267674 -0.9782,0.448584 l -1.09786,0.328927 1.42688,0.812126 c 0.78479,0.446669 1.81384,1.105766 2.28678,1.464659 l 0.8599,0.652534 v -0.906876 c 0,-1.07104 -0.37287,-1.631053 -1.45521,-2.185582 -0.5498,-0.281689 -0.64519,-0.407173 -0.31038,-0.408302 0.26586,-8.99e-4 0.83141,0.346399 1.25678,0.771768 0.58753,0.587535 0.77339,1.01872 0.77339,1.794219 0,0.899931 0.19072,1.207843 1.61045,2.60004 3.22299,3.160487 5.54411,7.240972 6.63599,11.665931 0.44096,1.787077 0.58237,3.171185 0.59134,5.7882873 0.0137,3.9944808 -0.54154,6.5338432 -2.19831,10.0541668 -0.96786,2.0565296 -3.52394,5.7146561 -4.86975,6.9693235 -0.62949,0.5868565 -0.64474,0.666168 -0.29097,1.5128584 0.80823,1.934374 0.38421,3.984689 -1.07373,5.191879 -0.55909,0.462928 -2.4053,1.026819 -3.23416,0.987811 -0.26298,-0.01238 0.13913,-0.172161 0.89357,-0.355081 z m -9.07343,-1.865035 c 1.14832,-0.204642 2.18287,-0.468378 2.29898,-0.586083 0.11611,-0.117703 -0.24931,-0.912781 -0.81204,-1.76684 -0.56273,-0.854062 -1.16649,-1.8988965 -1.34169,-2.3218594 -0.23856,-0.5759291 -0.44265,-0.7296335 -0.81281,-0.6121479 -0.75944,0.241038 -1.55697,-0.1204093 -1.82579,-0.8274659 -0.17962,-0.4724374 -0.44248,-0.638818 -1.00925,-0.638818 -1.7354,0 -6.08748,-1.3689488 -9.1686,-2.8839927 -1.74625,-0.8586603 -3.21069,-1.5274581 -3.2543,-1.4862202 -0.0436,0.041241 0.36945,0.9818767 0.91792,2.0903063 0.93409,1.887773 1.05119,2.0153233 1.85022,2.0153233 0.86995,0 1.67678,0.7503425 1.67678,1.5593933 0,0.6439879 -0.8353,1.3510234 -1.59611,1.3510234 -0.98458,0 -1.41545,-0.5971143 -1.23469,-1.7110525 0.11759,-0.7245906 -0.0663,-1.3272267 -0.89178,-2.9224155 -0.57196,-1.1052758 -1.03992,-2.1581005 -1.03992,-2.3396152 0,-0.1815121 -0.98227,-1.205828 -2.18281,-2.27625811 -3.28356,-2.92768079 -5.77368,-5.94328259 -7.20213,-8.72196589 l -0.46559,-0.905682 -0.51278,0.6410987 c -1.01161,1.264756 -0.22635,5.5630049 1.76801,9.6775271 4.53498,9.3559712 14.60278,14.4898112 24.83838,12.6657442 z m 6.3494,-2.153901 c 2.57551,-1.307915 3.96168,-2.3671505 6.29814,-4.8126917 3.16306,-3.3107392 5.2073,-7.30580735 6.03652,-11.7972338 0.45819,-2.4817229 0.19777,-7.3637645 -0.53074,-9.9498045 -1.64923,-5.854356 -5.58007,-10.945996 -10.80745,-13.998951 -1.01923,-0.595265 -1.91998,-1.082299 -2.00167,-1.082299 -0.0817,0 -0.45086,0.456867 -0.82039,1.015261 -0.62204,0.93997 -0.64349,1.069949 -0.28927,1.752711 0.93069,1.793915 -1.29593,3.249096 -2.39797,1.567165 -0.40607,-0.619746 -0.41274,-0.764688 -0.0639,-1.389063 0.22848,-0.408936 0.66365,-0.729489 1.05269,-0.775428 0.36477,-0.04307 0.8257,-0.340727 1.02429,-0.661458 0.19858,-0.320731 0.52681,-0.838301 0.72939,-1.150156 0.35411,-0.545133 0.30406,-0.588939 -1.29721,-1.135417 -6.56718,-2.241227 -14.39387,-1.19808 -20.14776,2.685304 -4.87125,3.287676 -8.22062,8.06549 -9.69478,13.829424 -0.46625,1.823008 -0.47343,2.061349 -0.0955,3.170589 0.22477,0.659671 0.45421,1.199401 0.50986,1.199401 0.0557,0 0.71418,-0.584665 1.46338,-1.299256 0.74921,-0.71459 2.21053,-1.734638 3.24738,-2.266771 1.25431,-0.643736 1.93314,-1.159446 2.02847,-1.541038 0.0788,-0.315438 0.45204,-0.746823 0.82941,-0.958635 0.61175,-0.343371 0.76112,-0.335971 1.37807,0.06827 0.72856,0.477372 0.87473,1.192767 0.41805,2.046076 -0.33318,0.622561 -1.88312,0.703887 -2.36433,0.124058 -0.27765,-0.334543 -0.56461,-0.265427 -2.09243,0.503968 -2.00766,1.011046 -4.52976,3.14383 -4.52976,3.8305472 0,0.9718992 3.29984,5.4789837 5.87589,8.0255957 1.43524,1.41882816 2.70625,2.57968755 2.82447,2.57968755 0.11823,0 0.15709,-1.20166344 0.0864,-2.67036285 -0.11466,-2.3811072 -0.19806,-2.7398293 -0.76992,-3.3116971 -1.31271,-1.3127064 0.38531,-3.231724 1.88757,-2.1332428 0.85509,0.6252607 0.44396,2.5590527 -0.54407,2.5590527 -0.27835,0 -0.36413,0.4845156 -0.363,2.0505208 0.002,2.99012776 0.3177,3.8649964 1.74927,4.8499449 2.5307,1.74117 7.70846,3.7058098 10.7691,4.0862145 1.38761,0.172466 1.5785,0.1358741 1.93323,-0.3705755 0.94074,-1.3430911 2.92825,-0.2371275 2.59727,1.445268 -0.1629,0.82804 0.60807,2.5359709 1.92291,4.2598099 0.85444,1.120236 1.34356,1.079582 4.14839,-0.344786 z m 4.63136,-14.7486056 c -0.95324,-0.4727125 -1.00614,-1.7207309 -0.10344,-2.4405193 l 0.70866,-0.5650627 -0.39547,-2.0967912 c -0.45599,-2.4176362 -1.41177,-4.9150912 -2.57437,-6.7268492 -1.28766,-2.006646 -1.33267,-2.018785 -3.0823,-0.831333 -2.43084,1.649771 -5.65685,3.160421 -8.40963,3.937997 -2.10221,0.593809 -2.59504,0.833728 -2.86359,1.39403 -0.46864,0.9777796 -1.98691,0.9656246 -2.54032,-0.02034 -0.35102,-0.6254 -0.34463,-0.7683 0.0621,-1.389062 0.55948,-0.853867 1.54749,-0.908565 2.32721,-0.128838 0.55368,0.553681 0.5898,0.555687 2.15757,0.119808 2.78968,-0.7756 5.55415,-1.955576 7.75565,-3.310391 3.06504,-1.886235 3.07809,-1.912529 1.67115,-3.365776 -2.66409,-2.751789 -6.60661,-4.921379 -10.42768,-5.738422 -1.01865,-0.217812 -1.57162,-0.405729 -1.22882,-0.417592 0.96859,-0.03352 3.67357,0.73572 5.50134,1.564472 2.19116,0.993521 4.32992,2.433482 6.23735,4.199432 l 1.55655,1.441088 1.16346,-1.141847 c 0.95015,-0.932507 1.11567,-1.231142 0.90279,-1.628906 -0.54641,-1.020976 0.7896,-2.272795 1.95342,-1.830313 1.46259,0.556076 0.9155,2.66617 -0.69127,2.66617 -0.67272,0 -1.11892,0.258868 -2.00845,1.165241 l -1.1436,1.165241 0.78833,1.149863 c 1.69108,2.466608 2.98255,5.815846 3.36809,8.7346688 0.12027,0.9105583 0.3334,1.3463905 0.81164,1.6597445 1.56531,1.0256335 0.18644,3.268779 -1.49637,2.4342831 z M -447.14582,-24.03408 c -0.89869,-0.898693 -0.23371,-2.494643 1.03944,-2.494643 0.62426,0 1.45521,0.615113 1.45521,1.077233 0,0.135126 0.26789,0.259496 0.59531,0.276376 0.5216,0.02689 0.53166,0.04689 0.0812,0.161526 -0.28275,0.07196 -0.73787,0.415335 -1.01139,0.763058 -0.57018,0.724865 -1.5529,0.823351 -2.1598,0.21645 z m -16.29886,14.7183953 c 0.19685,-0.3678159 0.18068,-0.7230893 -0.0568,-1.2488963 l -0.33194,-0.734849 -0.14416,1.050458 c -0.2034,1.4821998 0.0251,1.8822736 0.53294,0.9332873 z m -0.69319,-6.3644353 c 0.48426,-2.421334 2.81721,-6.760585 4.84646,-9.014349 l 1.0142,-1.126404 -1.45351,0.170408 c -2.35633,0.276256 -4.37244,2.034659 -5.02454,4.382286 -0.47578,1.712839 -0.27233,6.84262 0.25838,6.514626 0.109,-0.06737 0.27056,-0.484325 0.35901,-0.926567 z"
           id="path1606"
           inkscape:connector-curvature="0" />
        <path
           style="fill:#009cff;fill-opacity:1;stroke-width:0.26458335"
           d="m -427.85013,15.456562 c 0.7276,-0.191066 1.59718,-0.496173 1.93239,-0.678015 1.41685,-0.76861 2.03246,-3.059359 1.34902,-5.0198713 -0.15976,-0.4582769 -0.33205,-0.8332312 -0.38287,-0.8332312 -0.0508,0 -0.8703,0.5887932 -1.82107,1.3084305 -1.59678,1.208604 -5.31098,3.189486 -5.98035,3.189486 -0.81753,0 1.19896,1.307441 2.9185,1.892282 0.53469,0.181856 0.48398,0.199152 -0.26458,0.09025 -0.50932,-0.0741 -1.42954,-0.486719 -2.04493,-0.91694 l -1.11889,-0.782219 -1.96178,0.50174 c -6.17236,1.578623 -12.95235,0.480713 -18.4043,-2.98028 -1.19276,-0.757188 -2.54797,-1.584881 -3.01157,-1.8393175 -0.4636,-0.2544339 -0.74362,-0.4627933 -0.62227,-0.4630209 0.12135,-2.249e-4 -0.45129,-0.7429129 -1.27253,-1.6504152 -2.89146,-3.1951719 -4.75625,-6.65778198 -5.79184,-10.7545083 -0.71121,-2.8135184 -0.86695,-2.6654099 -1.21951,1.1597216 -0.19417,2.10669723 -0.19526,2.10914198 -0.23311,0.5186098 -0.0209,-0.8789326 0.13412,-2.2589358 0.34451,-3.0666769 0.2432,-0.9337358 0.41184,-3.1728067 0.46302,-6.1477746 0.0443,-2.573536 0.1534,-4.408219 0.24251,-4.077074 0.11851,0.440405 0.19967,0.495509 0.30221,0.205207 0.0771,-0.218281 0.45634,-1.301992 0.84274,-2.408245 0.83697,-2.396259 2.58393,-5.455109 4.08767,-7.157355 0.59821,-0.677174 1.08765,-1.284471 1.08765,-1.349548 0,-0.233964 -2.6111,0.300351 -3.34795,0.685096 -0.4142,0.216275 -1.06692,0.731278 -1.45049,1.144452 -1.28327,1.382315 -1.63968,2.434295 -1.82323,5.381434 l -0.17303,2.778125 -0.0408,-2.248959 c -0.0478,-2.63757 0.19657,-3.674197 1.26225,-5.354602 0.92542,-1.459228 2.27018,-2.229773 4.60451,-2.638373 1.35015,-0.23633 1.8537,-0.485777 2.93155,-1.452238 2.40958,-2.160559 6.09232,-4.01052 9.94776,-4.997081 2.93374,-0.75071 8.87455,-0.692067 11.73596,0.115848 1.14566,0.323477 2.41889,0.761825 2.8294,0.974106 0.55239,0.285654 0.92663,0.317434 1.43993,0.122278 0.97232,-0.369676 1.4674,-0.307221 0.62602,0.07897 -0.68883,0.316175 -0.67632,0.330052 1.52136,1.688153 l 2.21589,1.369358 v -0.79144 c 0,-1.112738 -0.4353,-1.799092 -1.4099,-2.223035 -0.53428,-0.232408 -0.66348,-0.368748 -0.35569,-0.375343 0.26586,-0.0057 0.83141,0.337673 1.25678,0.763042 0.57729,0.57729 0.77339,1.022686 0.77339,1.756536 0,0.858952 0.24237,1.237513 1.9187,2.996915 3.2764,3.438753 5.26961,7.006302 6.32833,11.326753 0.81597,3.329827 0.81028,8.3477651 -0.013,11.432402 -1.05467,3.95171084 -2.61883,6.854661 -5.50182,10.2108715 l -1.59094,1.8520834 0.38276,0.9250812 c 0.56155,1.3572019 0.32055,3.5286419 -0.48765,4.3937579 -0.86303,0.923822 -1.81188,1.385375 -3.19143,1.552432 l -1.15226,0.139534 1.32292,-0.347396 z m -9.02463,-1.89457 c 1.14832,-0.204642 2.19775,-0.481965 2.33206,-0.61627 0.1492,-0.149204 -0.16083,-0.822388 -0.79701,-1.730565 -0.57266,-0.817505 -1.19131,-1.8487552 -1.37478,-2.2916704 -0.25188,-0.6081157 -0.45459,-0.7668868 -0.82783,-0.6484249 -0.74741,0.2372201 -1.43816,-0.078605 -1.77136,-0.8099108 -0.21808,-0.4786207 -0.50637,-0.6563731 -1.06456,-0.6563731 -2.34643,0 -10.39537,-2.9624602 -12.0038,-4.4180707 -0.76016,-0.6879326 -0.58185,0.071303 0.53723,2.2875214 0.94132,1.8641933 1.04381,1.9712411 1.89979,1.984375 0.69372,0.010636 0.99644,0.1765088 1.29764,0.7109989 0.35294,0.6262899 0.34679,0.767416 -0.0605,1.3890625 -0.50178,0.76581 -1.37594,0.9018218 -2.15146,0.3347456 -0.38627,-0.2824507 -0.45444,-0.5670656 -0.32576,-1.360051 0.12641,-0.7789942 0.0215,-1.2455631 -0.46987,-2.0901951 -0.34793,-0.5980404 -0.88665,-1.7363758 -1.19713,-2.5296337 -0.31049,-0.7932578 -0.82472,-1.6190119 -1.14272,-1.8350098 -1.12688,-0.76539456 -5.00903,-4.6829715 -6.19121,-6.2477015 -0.65966,-0.873125 -1.56085,-2.2261434 -2.00264,-3.0067065 l -0.80326,-1.4192092 -0.50099,0.6254591 c -0.41453,0.5175251 -0.47781,0.9222317 -0.36671,2.3452482 0.38267,4.901573 3.33081,10.7708966 7.1244,14.1836777 5.59006,5.0289273 12.63606,7.0861553 19.8605,5.7987033 z m 6.12153,-2.008274 c 5.67921,-2.8967303 9.74991,-7.6288456 11.76852,-13.6806841 1.46587,-4.3946895 1.40771,-9.8142569 -0.15459,-14.4076389 -1.77055,-5.205609 -5.32246,-9.563263 -10.19685,-12.509957 -2.2852,-1.381465 -2.49958,-1.36777 -3.31644,0.211866 -0.28898,0.558822 -0.32126,0.857965 -0.11485,1.064375 0.4145,0.414496 0.35295,1.913902 -0.0938,2.284653 -0.60432,0.501546 -1.81421,0.229463 -2.17,-0.487995 -0.43361,-0.874401 -0.0708,-1.699568 0.87363,-1.987186 0.63874,-0.194513 1.71686,-1.355983 2.15675,-2.32347 0.0454,-0.09995 -0.86995,-0.482639 -2.03421,-0.850427 -5.2662,-1.663592 -10.7616,-1.397259 -15.94293,0.772668 -6.65169,2.785711 -11.80787,8.856722 -13.47156,15.861756 -0.49585,2.087813 -0.50154,2.283066 -0.096,3.296513 0.48882,1.2216962 0.7083,1.3120229 1.26314,0.519868 0.58692,-0.837936 3.03138,-2.61091 4.60054,-3.33677 0.9514,-0.440102 1.38906,-0.798441 1.38906,-1.137321 0,-0.513582 0.92433,-1.318524 1.51408,-1.318524 0.51296,0 1.39634,0.992363 1.39634,1.568601 0,1.16396 -1.71308,1.789071 -2.62966,0.959577 -0.37182,-0.336493 -0.62507,-0.281771 -2.11609,0.457246 -1.92886,0.956033 -4.51467,3.184821 -4.51467,3.8913353 0,0.9215305 3.25098,5.4175343 5.65361,7.8187683 1.3289,1.32812633 2.67567,2.55324772 2.99283,2.72248845 0.55501,0.29616405 0.56742,0.27553445 0.33073,-0.54976184 -0.13526,-0.47160657 -0.2314,-1.27497418 -0.21366,-1.78525751 0.0232,-0.6677581 0.0969,-0.4828593 0.26293,0.65971206 0.12687,0.87312501 0.44331,1.87269444 0.70322,2.22126444 1.14138,1.5307575 7.5209,4.2528914 11.36901,4.8511434 1.85905,0.2890202 1.95031,0.2782147 2.33918,-0.2769738 0.53397,-0.7623466 1.79521,-0.7732316 2.32276,-0.020029 0.24738,0.3531764 0.33796,0.8821658 0.24702,1.4425427 -0.14782,0.9109075 0.49502,2.3193481 1.95512,4.2836285 0.83499,1.123315 1.35739,1.094578 3.92686,-0.215998 z m 4.84366,-14.9018976 c -0.92103,-0.4565332 -0.98974,-1.8445506 -0.11952,-2.414741 0.36383,-0.2383922 0.7142,-0.6326743 0.7786,-0.8761835 0.0817,-0.3087265 0.12639,-0.2625434 0.14779,0.1525693 0.0177,0.3430561 0.20127,0.5953125 0.43324,0.5953125 0.62222,0 1.06403,1.1940408 0.72066,1.9476588 -0.3484,0.7646405 -1.1365,1.0039482 -1.96077,0.5953839 z m -27.97133,-0.7571052 c -0.0169,-0.2546614 -0.14701,-0.4630208 -0.28917,-0.4630208 -0.14217,0 -0.44299,-0.2815855 -0.66849,-0.6257449 -0.76658,-1.1699452 0.3369,-2.5915885 1.68057,-2.1651251 1.13061,0.3588438 1.17135,2.4183922 0.0536,2.7106854 -0.28286,0.07397 -0.56639,0.3306312 -0.63006,0.5703596 -0.10144,0.3818784 -0.11958,0.3785156 -0.14647,-0.027154 z m 28.34111,-3.9026042 c 0,-0.5093229 0.0544,-0.7176823 0.121,-0.4630208 0.0666,0.2546614 0.0666,0.6713802 0,0.9260416 -0.0666,0.2546615 -0.121,0.046302 -0.121,-0.4630208 z m -0.54934,-2.320223 c -1.40937,-5.499066 -6.30405,-10.767104 -12.24103,-13.174765 -1.22098,-0.495152 -2.04138,-0.900826 -1.8231,-0.901498 0.72818,-0.0022 4.34452,1.718792 6.05686,2.882488 0.93018,0.632143 2.29234,1.72874 3.02703,2.436882 0.73468,0.708143 1.40736,1.287533 1.49482,1.287533 0.0875,0 0.64716,-0.506016 1.24376,-1.12448 0.84127,-0.872094 1.03925,-1.243248 0.88208,-1.653645 -0.40881,-1.067492 0.85565,-2.250632 1.84147,-1.723037 1.48758,0.796126 1.06342,2.649078 -0.6064,2.649078 -0.67356,0 -1.11944,0.259402 -2.01585,1.172779 l -1.151,1.172778 0.92886,1.406909 c 1.57011,2.378179 3.04397,5.853459 2.79685,6.5948143 -0.0533,0.1599142 -0.24876,-0.3017123 -0.43435,-1.0258363 z m -18.99304,-0.208258 c -0.41614,-0.635113 -0.42372,-0.778816 -0.0741,-1.404611 0.50493,-0.90377 1.60502,-1.052382 2.34113,-0.316269 0.29986,0.299857 0.69403,0.547018 0.87593,0.549246 0.24638,0.003 0.24028,0.06138 -0.0239,0.228841 -0.19506,0.123634 -0.49543,0.508763 -0.66749,0.855844 -0.47602,0.9602284 -1.84749,1.008872 -2.45156,0.08695 z m 4.66433,-1.586244 c 0.65484,-0.206337 1.30969,-0.367908 1.45521,-0.359046 0.46308,0.0282 -1.56469,0.729242 -2.11667,0.731776 -0.29104,0.0013 0.007,-0.166392 0.66146,-0.37273 z m 4.71518,-1.68606 c 1.2109,-0.585081 2.98109,-1.608668 3.93377,-2.274636 0.95268,-0.665968 1.78407,-1.158919 1.84754,-1.095446 0.31249,0.312485 -5.72585,3.821198 -7.32149,4.254321 -0.3638,0.09875 0.32928,-0.299157 1.54018,-0.884239 z m -11.42105,-10.293486 c -0.88003,-0.972424 -0.27057,-2.426563 1.01702,-2.426563 0.34285,0 0.84715,0.284501 1.12067,0.632225 0.27352,0.347723 0.72864,0.691099 1.01139,0.763058 0.47637,0.121235 0.47805,0.133085 0.023,0.161526 -0.2701,0.01688 -0.72522,0.328348 -1.01139,0.69215 -0.61317,0.779516 -1.54653,0.856236 -2.16068,0.177604 z m 5.86251,-0.490636 c 0.191,-0.07643 0.4192,-0.06703 0.50712,0.02089 0.0879,0.08792 -0.0684,0.150453 -0.34727,0.138965 -0.30822,-0.01269 -0.37092,-0.07539 -0.15985,-0.159853 z m -1.73633,-0.266227 c 0.25466,-0.06655 0.67138,-0.06655 0.92604,0 0.25467,0.06655 0.0463,0.121 -0.46302,0.121 -0.50932,0 -0.71768,-0.05445 -0.46302,-0.121 z m -20.43949,15.5290296 c 0.21237,-0.3968221 0.18439,-0.7096946 -0.11239,-1.2567726 -0.25052,-0.461793 -0.39904,-0.571041 -0.40575,-0.298467 -0.006,0.236472 -0.085,0.802018 -0.17596,1.2567711 -0.1891,0.9454965 0.24737,1.1331813 0.6941,0.2984685 z m 3.63845,17.4436725 c -0.5457,-0.2880863 -0.99219,-0.5828983 -0.99219,-0.6551401 0,-0.1178825 2.08985,0.8587898 2.3592,1.1025531 0.30448,0.275545 -0.49029,0.015425 -1.36701,-0.447413 z m -2.02186,-1.3203185 c -0.34803,-0.2898405 -0.5767,-0.583065 -0.50816,-0.6516132 0.0686,-0.068548 0.40383,0.1725533 0.74506,0.5357812 0.74243,0.7902787 0.63566,0.8424837 -0.2369,0.115832 z m -1.54085,-1.6382286 c -0.62041,-0.6763173 -1.9275,-3.1826571 -1.92718,-3.695372 1.1e-4,-0.1867376 0.3656,0.4343824 0.81221,1.3802678 0.4466,0.9458854 1.06257,1.9876823 1.36882,2.3151042 0.30626,0.3274219 0.4973,0.5953125 0.42454,0.5953125 -0.0728,0 -0.37804,-0.2678906 -0.67839,-0.5953125 z m -2.1502,-4.69635423 c 0,-0.36380209 0.06,-0.51263021 0.13345,-0.33072917 0.0734,0.18190105 0.0734,0.4795573 0,0.66145834 -0.0734,0.18190105 -0.13345,0.0330729 -0.13345,-0.33072917 z"
           id="path1608"
           inkscape:connector-curvature="0" />
      </g>
      <text
         xml:space="preserve"
         style="font-style:normal;font-variant:normal;font-weight:normal;font-stretch:normal;font-size:31.92704582px;line-height:1.25;font-family:'Barlow Condensed';-inkscape-font-specification:'Barlow Condensed, ';letter-spacing:0px;word-spacing:0px;fill:#000000;fill-opacity:1;stroke:none;stroke-width:0.79817605"
         x="69.595467"
         y="135.63319"
         id="text1614"
         transform="scale(1.0454446,0.95653083)"><tspan
           sodipodi:role="line"
           id="tspan1612"
           x="69.595467"
           y="135.63319"
           style="fill:#000000;fill-opacity:1;stroke-width:0.79817605">ogarantia</tspan></text>
    </g>
  </g>
</svg>
